<?xml version="1.0" encoding="utf-8"?>
<!-- Generator: Adobe Illustrator 23.1.1, SVG Export Plug-In . SVG Version: 6.00 Build 0)  -->
<svg version="1.2" baseProfile="tiny" id="g-cattani-desktop-img" xmlns="http://www.w3.org/2000/svg" xmlns:xlink="http://www.w3.org/1999/xlink"
	 x="0px" y="0px" viewBox="0 0 650 550" xml:space="preserve">
<g>
	<g>
		
			<line fill="none" stroke="#000000" stroke-width="0.5" stroke-miterlimit="10" x1="384.593" y1="500.517" x2="384.593" y2="498.017"/>
		
			<line fill="none" stroke="#000000" stroke-width="0.5" stroke-miterlimit="10" stroke-dasharray="5.0636,5.0636" x1="384.593" y1="492.953" x2="384.593" y2="262.558"/>
		
			<line fill="none" stroke="#000000" stroke-width="0.5" stroke-miterlimit="10" x1="384.593" y1="260.027" x2="384.593" y2="257.527"/>
	</g>
	<g>
		
			<line fill="none" stroke="#000000" stroke-width="0.5" stroke-miterlimit="10" x1="97.217" y1="499.989" x2="97.217" y2="497.489"/>
		
			<line fill="none" stroke="#000000" stroke-width="0.5" stroke-miterlimit="10" stroke-dasharray="4.9485,4.9485" x1="97.217" y1="492.541" x2="97.217" y2="198.104"/>
		<line fill="none" stroke="#000000" stroke-width="0.5" stroke-miterlimit="10" x1="97.217" y1="195.63" x2="97.217" y2="193.13"/>
	</g>
	<rect x="72.951" y="277.889" fill="#FFFFFF" width="32.782" height="19.869"/>
	<g>
		
			<line fill="none" stroke="#000000" stroke-width="0.5" stroke-linecap="square" stroke-miterlimit="10" x1="97.217" y1="500.089" x2="97.217" y2="506.254"/>
		
			<line fill="none" stroke="#000000" stroke-width="0.5" stroke-linecap="square" stroke-miterlimit="10" x1="189.676" y1="500.089" x2="189.676" y2="506.254"/>
		
			<line fill="none" stroke="#000000" stroke-width="0.5" stroke-linecap="square" stroke-miterlimit="10" x1="189.676" y1="500.089" x2="189.676" y2="506.254"/>
		
			<line fill="none" stroke="#000000" stroke-width="0.5" stroke-linecap="square" stroke-miterlimit="10" x1="287.134" y1="500.089" x2="287.134" y2="506.254"/>
		
			<line fill="none" stroke="#000000" stroke-width="0.5" stroke-linecap="square" stroke-miterlimit="10" x1="287.134" y1="500.089" x2="287.134" y2="506.254"/>
		
			<line fill="none" stroke="#000000" stroke-width="0.5" stroke-linecap="square" stroke-miterlimit="10" x1="384.593" y1="500.089" x2="384.593" y2="506.254"/>
		
			<line fill="none" stroke="#000000" stroke-width="0.5" stroke-linecap="square" stroke-miterlimit="10" x1="384.593" y1="500.089" x2="384.593" y2="506.254"/>
		
			<line fill="none" stroke="#000000" stroke-width="0.5" stroke-linecap="square" stroke-miterlimit="10" x1="482.051" y1="500.089" x2="482.051" y2="506.254"/>
		
			<line fill="none" stroke="#000000" stroke-width="0.5" stroke-linecap="square" stroke-miterlimit="10" x1="482.051" y1="500.089" x2="482.051" y2="506.254"/>
		
			<line fill="none" stroke="#000000" stroke-width="0.5" stroke-linecap="square" stroke-miterlimit="10" x1="579.509" y1="500.089" x2="579.509" y2="506.254"/>
		
			<line fill="none" stroke="#000000" stroke-width="0.5" stroke-linecap="square" stroke-miterlimit="10" x1="579.509" y1="500.089" x2="579.509" y2="506.254"/>
		
			<line fill="none" stroke="#000000" stroke-width="0.5" stroke-linecap="square" stroke-miterlimit="10" x1="67.853" y1="471.43" x2="62.249" y2="471.43"/>
		
			<line fill="none" stroke="#000000" stroke-width="0.5" stroke-linecap="square" stroke-miterlimit="10" x1="67.853" y1="471.43" x2="62.249" y2="471.43"/>
		
			<line fill="none" stroke="#000000" stroke-width="0.5" stroke-linecap="square" stroke-miterlimit="10" x1="67.853" y1="428.825" x2="62.249" y2="428.825"/>
		
			<line fill="none" stroke="#000000" stroke-width="0.5" stroke-linecap="square" stroke-miterlimit="10" x1="67.853" y1="428.825" x2="62.249" y2="428.825"/>
		
			<line fill="none" stroke="#000000" stroke-width="0.5" stroke-linecap="square" stroke-miterlimit="10" x1="67.853" y1="386.22" x2="62.249" y2="386.22"/>
		
			<line fill="none" stroke="#000000" stroke-width="0.5" stroke-linecap="square" stroke-miterlimit="10" x1="67.853" y1="386.22" x2="62.249" y2="386.22"/>
		
			<line fill="none" stroke="#000000" stroke-width="0.5" stroke-linecap="square" stroke-miterlimit="10" x1="67.853" y1="343.615" x2="62.249" y2="343.615"/>
		
			<line fill="none" stroke="#000000" stroke-width="0.5" stroke-linecap="square" stroke-miterlimit="10" x1="67.853" y1="343.615" x2="62.249" y2="343.615"/>
		
			<line fill="none" stroke="#000000" stroke-width="0.5" stroke-linecap="square" stroke-miterlimit="10" x1="67.853" y1="301.009" x2="62.249" y2="301.009"/>
		
			<line fill="none" stroke="#000000" stroke-width="0.5" stroke-linecap="square" stroke-miterlimit="10" x1="67.853" y1="301.009" x2="62.249" y2="301.009"/>
		
			<line fill="none" stroke="#000000" stroke-width="0.5" stroke-linecap="square" stroke-miterlimit="10" x1="67.853" y1="258.404" x2="62.249" y2="258.404"/>
		
			<line fill="none" stroke="#000000" stroke-width="0.5" stroke-linecap="square" stroke-miterlimit="10" x1="67.853" y1="258.404" x2="62.249" y2="258.404"/>
		
			<line fill="none" stroke="#000000" stroke-width="0.5" stroke-linecap="square" stroke-miterlimit="10" x1="67.853" y1="215.799" x2="62.249" y2="215.799"/>
		
			<line fill="none" stroke="#000000" stroke-width="0.5" stroke-linecap="square" stroke-miterlimit="10" x1="67.853" y1="215.799" x2="62.249" y2="215.799"/>
		
			<line fill="none" stroke="#000000" stroke-width="0.5" stroke-linecap="square" stroke-miterlimit="10" x1="67.853" y1="173.194" x2="62.249" y2="173.194"/>
		
			<line fill="none" stroke="#000000" stroke-width="0.5" stroke-linecap="square" stroke-miterlimit="10" x1="67.853" y1="173.194" x2="62.249" y2="173.194"/>
		
			<line fill="none" stroke="#000000" stroke-width="0.5" stroke-linecap="square" stroke-miterlimit="10" x1="67.853" y1="130.589" x2="62.249" y2="130.589"/>
		
			<line fill="none" stroke="#000000" stroke-width="0.5" stroke-linecap="square" stroke-miterlimit="10" x1="67.853" y1="130.589" x2="62.249" y2="130.589"/>
		
			<line fill="none" stroke="#000000" stroke-width="0.5" stroke-linecap="square" stroke-miterlimit="10" x1="67.853" y1="500.089" x2="67.853" y2="117.051"/>
		
			<line fill="none" stroke="#000000" stroke-width="0.5" stroke-linecap="square" stroke-miterlimit="10" x1="67.853" y1="500.089" x2="579.509" y2="500.089"/>
	</g>
	<rect x="368.775" y="328.709" fill="#FFFFFF" width="32.782" height="74.871"/>
	<g>
		
			<line fill="none" stroke="#000000" stroke-width="0.5" stroke-miterlimit="10" x1="437.397" y1="500.517" x2="437.397" y2="498.017"/>
		
			<line fill="none" stroke="#000000" stroke-width="0.5" stroke-miterlimit="10" stroke-dasharray="4.9463,4.9463" x1="437.397" y1="493.07" x2="437.397" y2="188.872"/>
		
			<line fill="none" stroke="#000000" stroke-width="0.5" stroke-miterlimit="10" x1="437.397" y1="186.399" x2="437.397" y2="183.899"/>
	</g>
	<polygon fill="#FFFFFF" points="421.006,413.472 453.788,413.472 448.788,464.567 416.006,464.567 	"/>
	<g>
		
			<line fill="none" stroke="#000000" stroke-width="0.5" stroke-miterlimit="10" x1="145.777" y1="500.089" x2="145.777" y2="497.589"/>
		
			<line fill="none" stroke="#000000" stroke-width="0.5" stroke-miterlimit="10" stroke-dasharray="5.0394,5.0394" x1="145.777" y1="492.549" x2="145.777" y2="323.728"/>
		
			<line fill="none" stroke="#000000" stroke-width="0.5" stroke-miterlimit="10" x1="145.777" y1="321.209" x2="145.777" y2="318.709"/>
	</g>
	
		<polyline fill="none" stroke="#DAA520" stroke-width="2" stroke-linecap="square" stroke-linejoin="round" stroke-miterlimit="10" points="
		96.538,482.678 145.528,482.678 145.585,384.746 192.895,384.746 192.895,404.902 244.656,404.902 244.656,382.505 
		291.648,382.505 291.274,367.29 337.578,367.29 337.792,322.501 384.096,322.501 384.096,257.527 437.199,257.527 437.199,180.056 
		486.718,180.056 486.718,150.008 534.529,150.008 534.529,135.758 583.014,135.758 583.692,144.926 631.003,144.926 	"/>
</g>
<style>
#g-cattani-desktop-img rect, #g-cattani-desktop-img circle, #g-cattani-desktop-img path, #g-cattani-desktop-img line, #g-cattani-desktop-img polyline { vector-effect: non-scaling-stroke; }
</style>
</svg>

