<?xml version="1.0" encoding="utf-8"?>
<!-- Generator: Adobe Illustrator 23.1.1, SVG Export Plug-In . SVG Version: 6.00 Build 0)  -->
<svg version="1.2" baseProfile="tiny" id="g-cattani-mobile-img" xmlns="http://www.w3.org/2000/svg" xmlns:xlink="http://www.w3.org/1999/xlink"
	 x="0px" y="0px" viewBox="0 0 300 550" xml:space="preserve">
<g>
	<g>
		
			<line fill="none" stroke="#000000" stroke-width="0.5" stroke-miterlimit="10" x1="184.665" y1="506.176" x2="184.665" y2="503.676"/>
		
			<line fill="none" stroke="#000000" stroke-width="0.5" stroke-miterlimit="10" stroke-dasharray="5.0636,5.0636" x1="184.665" y1="498.612" x2="184.665" y2="268.218"/>
		
			<line fill="none" stroke="#000000" stroke-width="0.5" stroke-miterlimit="10" x1="184.665" y1="265.686" x2="184.665" y2="263.186"/>
	</g>
	<g>
		
			<line fill="none" stroke="#000000" stroke-width="0.5" stroke-miterlimit="10" x1="55.734" y1="505.649" x2="55.734" y2="503.149"/>
		
			<line fill="none" stroke="#000000" stroke-width="0.5" stroke-miterlimit="10" stroke-dasharray="4.9485,4.9485" x1="55.734" y1="498.2" x2="55.734" y2="203.764"/>
		
			<line fill="none" stroke="#000000" stroke-width="0.5" stroke-miterlimit="10" x1="55.734" y1="201.289" x2="55.734" y2="198.789"/>
	</g>
	<g>
		
			<line fill="none" stroke="#000000" stroke-width="0.5" stroke-linecap="square" stroke-miterlimit="10" x1="55.734" y1="505.748" x2="55.734" y2="511.913"/>
		
			<line fill="none" stroke="#000000" stroke-width="0.5" stroke-linecap="square" stroke-miterlimit="10" x1="97.216" y1="505.748" x2="97.216" y2="511.913"/>
		
			<line fill="none" stroke="#000000" stroke-width="0.5" stroke-linecap="square" stroke-miterlimit="10" x1="97.216" y1="505.748" x2="97.216" y2="511.913"/>
		
			<line fill="none" stroke="#000000" stroke-width="0.5" stroke-linecap="square" stroke-miterlimit="10" x1="140.941" y1="505.748" x2="140.941" y2="511.913"/>
		
			<line fill="none" stroke="#000000" stroke-width="0.5" stroke-linecap="square" stroke-miterlimit="10" x1="140.941" y1="505.748" x2="140.941" y2="511.913"/>
		
			<line fill="none" stroke="#000000" stroke-width="0.5" stroke-linecap="square" stroke-miterlimit="10" x1="184.665" y1="505.748" x2="184.665" y2="511.913"/>
		
			<line fill="none" stroke="#000000" stroke-width="0.5" stroke-linecap="square" stroke-miterlimit="10" x1="184.665" y1="505.748" x2="184.665" y2="511.913"/>
		
			<line fill="none" stroke="#000000" stroke-width="0.5" stroke-linecap="square" stroke-miterlimit="10" x1="228.39" y1="505.748" x2="228.39" y2="511.913"/>
		
			<line fill="none" stroke="#000000" stroke-width="0.5" stroke-linecap="square" stroke-miterlimit="10" x1="228.39" y1="505.748" x2="228.39" y2="511.913"/>
		
			<line fill="none" stroke="#000000" stroke-width="0.5" stroke-linecap="square" stroke-miterlimit="10" x1="272.115" y1="505.748" x2="272.115" y2="511.913"/>
		
			<line fill="none" stroke="#000000" stroke-width="0.5" stroke-linecap="square" stroke-miterlimit="10" x1="272.115" y1="505.748" x2="272.115" y2="511.913"/>
		
			<line fill="none" stroke="#000000" stroke-width="0.5" stroke-linecap="square" stroke-miterlimit="10" x1="42.56" y1="477.089" x2="40.046" y2="477.089"/>
		
			<line fill="none" stroke="#000000" stroke-width="0.5" stroke-linecap="square" stroke-miterlimit="10" x1="42.56" y1="477.089" x2="40.046" y2="477.089"/>
		
			<line fill="none" stroke="#000000" stroke-width="0.5" stroke-linecap="square" stroke-miterlimit="10" x1="42.56" y1="434.484" x2="40.046" y2="434.484"/>
		
			<line fill="none" stroke="#000000" stroke-width="0.5" stroke-linecap="square" stroke-miterlimit="10" x1="42.56" y1="434.484" x2="40.046" y2="434.484"/>
		
			<line fill="none" stroke="#000000" stroke-width="0.5" stroke-linecap="square" stroke-miterlimit="10" x1="42.56" y1="391.879" x2="40.046" y2="391.879"/>
		
			<line fill="none" stroke="#000000" stroke-width="0.5" stroke-linecap="square" stroke-miterlimit="10" x1="42.56" y1="391.879" x2="40.046" y2="391.879"/>
		
			<line fill="none" stroke="#000000" stroke-width="0.5" stroke-linecap="square" stroke-miterlimit="10" x1="42.56" y1="349.274" x2="40.046" y2="349.274"/>
		
			<line fill="none" stroke="#000000" stroke-width="0.5" stroke-linecap="square" stroke-miterlimit="10" x1="42.56" y1="349.274" x2="40.046" y2="349.274"/>
		
			<line fill="none" stroke="#000000" stroke-width="0.5" stroke-linecap="square" stroke-miterlimit="10" x1="42.56" y1="306.669" x2="40.046" y2="306.669"/>
		
			<line fill="none" stroke="#000000" stroke-width="0.5" stroke-linecap="square" stroke-miterlimit="10" x1="42.56" y1="306.669" x2="40.046" y2="306.669"/>
		
			<line fill="none" stroke="#000000" stroke-width="0.5" stroke-linecap="square" stroke-miterlimit="10" x1="42.56" y1="264.064" x2="40.046" y2="264.064"/>
		
			<line fill="none" stroke="#000000" stroke-width="0.5" stroke-linecap="square" stroke-miterlimit="10" x1="42.56" y1="264.064" x2="40.046" y2="264.064"/>
		
			<line fill="none" stroke="#000000" stroke-width="0.5" stroke-linecap="square" stroke-miterlimit="10" x1="42.56" y1="221.459" x2="40.046" y2="221.459"/>
		
			<line fill="none" stroke="#000000" stroke-width="0.5" stroke-linecap="square" stroke-miterlimit="10" x1="42.56" y1="221.459" x2="40.046" y2="221.459"/>
		
			<line fill="none" stroke="#000000" stroke-width="0.5" stroke-linecap="square" stroke-miterlimit="10" x1="42.56" y1="178.853" x2="40.046" y2="178.853"/>
		
			<line fill="none" stroke="#000000" stroke-width="0.5" stroke-linecap="square" stroke-miterlimit="10" x1="42.56" y1="178.853" x2="40.046" y2="178.853"/>
		
			<line fill="none" stroke="#000000" stroke-width="0.5" stroke-linecap="square" stroke-miterlimit="10" x1="42.56" y1="136.248" x2="40.046" y2="136.248"/>
		
			<line fill="none" stroke="#000000" stroke-width="0.5" stroke-linecap="square" stroke-miterlimit="10" x1="42.56" y1="136.248" x2="40.046" y2="136.248"/>
		
			<line fill="none" stroke="#000000" stroke-width="0.5" stroke-linecap="square" stroke-miterlimit="10" x1="42.56" y1="505.748" x2="42.56" y2="122.71"/>
		
			<line fill="none" stroke="#000000" stroke-width="0.5" stroke-linecap="square" stroke-miterlimit="10" x1="42.56" y1="505.748" x2="272.115" y2="505.748"/>
	</g>
	<rect x="176.257" y="376.726" fill="#FFFFFF" width="14.708" height="63.388"/>
	<g>
		
			<line fill="none" stroke="#000000" stroke-width="0.5" stroke-miterlimit="10" x1="208.356" y1="506.176" x2="208.356" y2="503.676"/>
		
			<line fill="none" stroke="#000000" stroke-width="0.5" stroke-miterlimit="10" stroke-dasharray="4.9463,4.9463" x1="208.356" y1="498.73" x2="208.356" y2="194.531"/>
		
			<line fill="none" stroke="#000000" stroke-width="0.5" stroke-miterlimit="10" x1="208.356" y1="192.058" x2="208.356" y2="189.558"/>
	</g>
	<polygon fill="#FFFFFF" points="201.002,442.567 215.71,442.567 213.466,490.9 198.759,490.9 	"/>
	<g>
		<line fill="none" stroke="#000000" stroke-width="0.5" stroke-miterlimit="10" x1="77.52" y1="505.748" x2="77.52" y2="503.248"/>
		
			<line fill="none" stroke="#000000" stroke-width="0.5" stroke-miterlimit="10" stroke-dasharray="5.0394,5.0394" x1="77.52" y1="498.209" x2="77.52" y2="329.388"/>
		<line fill="none" stroke="#000000" stroke-width="0.5" stroke-miterlimit="10" x1="77.52" y1="326.868" x2="77.52" y2="324.368"/>
	</g>
	
		<polyline fill="none" stroke="#DAA520" stroke-width="2" stroke-linecap="square" stroke-linejoin="round" stroke-miterlimit="10" points="
		55.43,488.337 77.409,488.337 77.434,390.405 98.66,390.405 98.66,410.561 121.883,410.561 121.883,388.164 142.966,388.164 
		142.798,372.95 163.572,372.95 163.668,328.161 184.442,328.161 184.442,263.186 208.267,263.186 208.267,185.715 230.484,185.715 
		230.484,155.668 251.934,155.668 251.934,141.417 273.687,141.417 273.992,150.585 295.218,150.585 	"/>
	<polygon fill="#FFFFFF" points="178.69,461.765 193.398,461.765 191.155,490.9 176.447,490.9 	"/>
	<rect x="201.002" y="393.723" fill="#FFFFFF" width="14.708" height="46.26"/>
</g>
<style>
#g-cattani-mobile-img rect, #g-cattani-mobile-img circle, #g-cattani-mobile-img path, #g-cattani-mobile-img line, #g-cattani-mobile-img polyline { vector-effect: non-scaling-stroke; }
</style>
</svg>

