<?xml version="1.0" encoding="utf-8"?>
<!-- Generator: Adobe Illustrator 23.1.1, SVG Export Plug-In . SVG Version: 6.00 Build 0)  -->
<svg version="1.2" baseProfile="tiny" id="g-gottlieb-desktop-img" xmlns="http://www.w3.org/2000/svg" xmlns:xlink="http://www.w3.org/1999/xlink"
	 x="0px" y="0px" viewBox="0 0 650 570" xml:space="preserve">
<g>
	<g>
		
			<line fill="none" stroke="#000000" stroke-width="0.5" stroke-miterlimit="10" x1="475.71" y1="482.576" x2="475.706" y2="480.076"/>
		
			<line fill="none" stroke="#000000" stroke-width="0.5" stroke-miterlimit="10" stroke-dasharray="4.9608,4.9608" x1="475.698" y1="475.115" x2="475.296" y2="229.556"/>
		
			<line fill="none" stroke="#000000" stroke-width="0.5" stroke-miterlimit="10" x1="475.292" y1="227.075" x2="475.288" y2="224.575"/>
	</g>
	<g>
		
			<line fill="none" stroke="#000000" stroke-width="0.5" stroke-miterlimit="10" x1="558.987" y1="482.572" x2="558.985" y2="480.072"/>
		
			<line fill="none" stroke="#000000" stroke-width="0.5" stroke-miterlimit="10" stroke-dasharray="5.0517,5.0517" x1="558.982" y1="475.021" x2="558.759" y2="164.342"/>
		
			<line fill="none" stroke="#000000" stroke-width="0.5" stroke-miterlimit="10" x1="558.758" y1="161.816" x2="558.756" y2="159.316"/>
	</g>
	<rect x="550.571" y="423.278" fill="#FFFFFF" width="12.237" height="51.926"/>
	<rect x="75.579" y="489.979" fill="#FFFFFF" width="31.377" height="16.986"/>
	<g>
		<line stroke="#000000" stroke-width="0.5" stroke-miterlimit="10" x1="97.114" y1="482.572" x2="97.114" y2="488.172"/>
		<line stroke="#000000" stroke-width="0.5" stroke-miterlimit="10" x1="151.221" y1="482.572" x2="151.221" y2="488.172"/>
		
			<line fill="none" stroke="#000000" stroke-width="0.5" stroke-miterlimit="10" x1="151.221" y1="482.572" x2="151.221" y2="488.172"/>
		<line stroke="#000000" stroke-width="0.5" stroke-miterlimit="10" x1="205.327" y1="482.572" x2="205.327" y2="488.172"/>
		<line stroke="#000000" stroke-width="0.5" stroke-miterlimit="10" x1="259.434" y1="482.572" x2="259.434" y2="488.172"/>
		<line stroke="#000000" stroke-width="0.5" stroke-miterlimit="10" x1="313.54" y1="482.572" x2="313.54" y2="488.172"/>
		<line stroke="#000000" stroke-width="0.5" stroke-miterlimit="10" x1="367.647" y1="482.572" x2="367.647" y2="488.172"/>
		<line stroke="#000000" stroke-width="0.5" stroke-miterlimit="10" x1="421.753" y1="482.572" x2="421.753" y2="488.172"/>
		<line stroke="#000000" stroke-width="0.5" stroke-miterlimit="10" x1="475.86" y1="482.572" x2="475.86" y2="488.172"/>
		
			<line fill="none" stroke="#000000" stroke-width="0.5" stroke-miterlimit="10" x1="475.86" y1="482.572" x2="475.86" y2="488.172"/>
		<line stroke="#000000" stroke-width="0.5" stroke-miterlimit="10" x1="529.967" y1="482.572" x2="529.967" y2="488.172"/>
		<line stroke="#000000" stroke-width="0.5" stroke-miterlimit="10" x1="584.073" y1="482.572" x2="584.073" y2="488.172"/>
		<line stroke="#000000" stroke-width="0.5" stroke-miterlimit="10" x1="72.766" y1="434.033" x2="67.166" y2="434.033"/>
		
			<line fill="none" stroke="#000000" stroke-width="0.5" stroke-linejoin="round" stroke-miterlimit="10" x1="72.766" y1="434.033" x2="67.166" y2="434.033"/>
		<path d="M60.516,434.284"/>
		<line stroke="#000000" stroke-width="0.5" stroke-miterlimit="10" x1="72.766" y1="364.947" x2="67.166" y2="364.947"/>
		
			<line fill="none" stroke="#000000" stroke-width="0.5" stroke-linejoin="round" stroke-miterlimit="10" x1="72.766" y1="364.947" x2="67.166" y2="364.947"/>
		<line stroke="#000000" stroke-width="0.5" stroke-miterlimit="10" x1="72.766" y1="295.861" x2="67.166" y2="295.861"/>
		
			<line fill="none" stroke="#000000" stroke-width="0.5" stroke-linejoin="round" stroke-miterlimit="10" x1="72.766" y1="295.861" x2="67.166" y2="295.861"/>
		<line stroke="#000000" stroke-width="0.5" stroke-miterlimit="10" x1="72.766" y1="226.775" x2="67.166" y2="226.775"/>
		
			<line fill="none" stroke="#000000" stroke-width="0.5" stroke-linejoin="round" stroke-miterlimit="10" x1="72.766" y1="226.775" x2="67.166" y2="226.775"/>
		<path d="M60.517,227.026"/>
		<line stroke="#000000" stroke-width="0.5" stroke-miterlimit="10" x1="72.766" y1="157.689" x2="67.166" y2="157.689"/>
		
			<line fill="none" stroke="#000000" stroke-width="0.5" stroke-linejoin="round" stroke-miterlimit="10" x1="72.766" y1="157.689" x2="67.166" y2="157.689"/>
		
			<line fill="none" stroke="#000000" stroke-width="0.5" stroke-linecap="square" stroke-miterlimit="10" x1="72.766" y1="482.572" x2="72.766" y2="134.684"/>
		
			<line fill="none" stroke="#000000" stroke-width="0.5" stroke-linecap="square" stroke-miterlimit="10" x1="72.766" y1="482.572" x2="620.04" y2="482.572"/>
	</g>
	<rect style="opacity:0.5;" x="456.343" y="359.934" fill="#FFFFFF" width="11.102" height="51.786"/>
	<rect style="opacity:0.5;" x="512.353" y="440.792" fill="#FFFFFF" width="11.102" height="33.124"/>
	<rect style="opacity:0.5;" x="483.993" y="440.005" fill="#FFFFFF" width="11.102" height="33.124"/>
	<rect style="opacity:0.5;" x="348.569" y="307.938" fill="#FFFFFF" width="11.102" height="16.325"/>
	<rect style="opacity:0.5;" x="431.267" y="307.938" fill="#FFFFFF" width="11.102" height="16.325"/>
	<rect style="opacity:0.5;" x="592.049" y="440.027" fill="#FFFFFF" width="11.102" height="35.107"/>
	<rect x="548.523" y="423.278" fill="#FFFFFF" width="17.298" height="49.851"/>
	<rect x="301.036" y="359.047" fill="#FFFFFF" width="15.211" height="61.547"/>
	<g>
		<line fill="none" stroke="#000000" stroke-width="0.5" stroke-miterlimit="10" x1="287.2" y1="482.572" x2="287.2" y2="480.072"/>
		
			<line fill="none" stroke="#000000" stroke-width="0.5" stroke-miterlimit="10" stroke-dasharray="4.9577,4.9577" x1="287.2" y1="475.114" x2="287.2" y2="279.286"/>
		<line fill="none" stroke="#000000" stroke-width="0.5" stroke-miterlimit="10" x1="287.2" y1="276.807" x2="287.2" y2="274.307"/>
	</g>
	<g>
		
			<line fill="none" stroke="#000000" stroke-width="0.5" stroke-miterlimit="10" x1="234.461" y1="482.572" x2="234.461" y2="480.072"/>
		
			<line fill="none" stroke="#000000" stroke-width="0.5" stroke-miterlimit="10" stroke-dasharray="4.9783,4.9783" x1="234.461" y1="475.094" x2="234.461" y2="168.927"/>
		
			<line fill="none" stroke="#000000" stroke-width="0.5" stroke-miterlimit="10" x1="234.461" y1="166.438" x2="234.461" y2="163.938"/>
	</g>
	<g>
		
			<line fill="none" stroke="#000000" stroke-width="0.5" stroke-miterlimit="10" x1="397.137" y1="482.572" x2="397.129" y2="480.072"/>
		
			<line fill="none" stroke="#000000" stroke-width="0.5" stroke-miterlimit="10" stroke-dasharray="4.9642,4.9642" x1="397.112" y1="475.108" x2="396.401" y2="269.095"/>
		
			<line fill="none" stroke="#000000" stroke-width="0.5" stroke-miterlimit="10" x1="396.392" y1="266.613" x2="396.384" y2="264.113"/>
	</g>
	<rect x="386.791" y="288.999" fill="#FFFFFF" width="18.346" height="89.441"/>
	<rect x="468.56" y="358.302" fill="#FFFFFF" width="13.879" height="53.418"/>
	
		<polyline fill="none" stroke="#DAA520" stroke-width="2" stroke-linecap="square" stroke-linejoin="round" stroke-miterlimit="10" points="
		98.076,466.88 125.13,466.88 125.13,451.995 152.183,451.995 152.183,446.263 179.747,446.075 179.531,406.996 206.584,406.996 
		206.801,388.16 234.434,388.16 234.434,386.043 260.907,386.043 260.907,315.779 287.96,315.779 287.96,364.315 315.016,364.315 
		315.016,332.242 342.069,332.242 342.067,277.781 369.12,277.781 369.12,287.305 396.174,287.305 396.384,264.113 423.437,264.113 
		423.437,235.199 450.49,235.199 450.49,234.399 477.544,234.399 477.438,224.572 504.492,224.572 504.492,194.357 531.545,194.357 
		531.545,204.588 558.598,204.588 558.756,159.316 585.809,159.316 585.809,151.225 612.6,151.225 	"/>
	<rect x="223.507" y="215.538" fill="#FFFFFF" width="13.441" height="26.095"/>
</g>
<style>
#g-gottlieb-desktop-img rect, #g-gottlieb-desktop-img circle, #g-gottlieb-desktop-img path, #g-gottlieb-desktop-img line, #g-gottlieb-desktop-img polyline { vector-effect: non-scaling-stroke; }
</style>
</svg>

