<?xml version="1.0" encoding="utf-8"?>
<!-- Generator: Adobe Illustrator 23.1.1, SVG Export Plug-In . SVG Version: 6.00 Build 0)  -->
<svg version="1.2" baseProfile="tiny" id="g-gottlieb-mobile-img" xmlns="http://www.w3.org/2000/svg" xmlns:xlink="http://www.w3.org/1999/xlink"
	 x="0px" y="0px" viewBox="0 0 300 700" xml:space="preserve">
<g>
	<g>
		
			<line fill="none" stroke="#000000" stroke-width="0.5" stroke-miterlimit="10" x1="231.794" y1="598.324" x2="231.793" y2="595.824"/>
		
			<line fill="none" stroke="#000000" stroke-width="0.5" stroke-miterlimit="10" stroke-dasharray="4.9791,4.9791" x1="231.79" y1="590.845" x2="231.596" y2="274.674"/>
		
			<line fill="none" stroke="#000000" stroke-width="0.5" stroke-miterlimit="10" x1="231.595" y1="272.185" x2="231.593" y2="269.685"/>
	</g>
	<g>
		
			<line fill="none" stroke="#000000" stroke-width="0.5" stroke-miterlimit="10" x1="270.405" y1="598.324" x2="270.404" y2="595.824"/>
		
			<line fill="none" stroke="#000000" stroke-width="0.5" stroke-miterlimit="10" stroke-dasharray="5.0218,5.0218" x1="270.403" y1="590.803" x2="270.296" y2="191.573"/>
		
			<line fill="none" stroke="#000000" stroke-width="0.5" stroke-miterlimit="10" x1="270.296" y1="189.062" x2="270.295" y2="186.562"/>
	</g>
	<rect x="266.399" y="534.415" fill="#FFFFFF" width="5.824" height="54.524"/>
	<rect x="40.335" y="612.303" fill="#FFFFFF" width="14.933" height="21.636"/>
	<g>
		<line stroke="#000000" stroke-width="0.5" stroke-miterlimit="10" x1="50.584" y1="598.324" x2="50.584" y2="605.457"/>
		<line stroke="#000000" stroke-width="0.5" stroke-miterlimit="10" x1="76.335" y1="598.324" x2="76.335" y2="605.457"/>
		<line stroke="#000000" stroke-width="0.5" stroke-miterlimit="10" x1="102.087" y1="598.324" x2="102.087" y2="605.457"/>
		
			<line fill="none" stroke="#000000" stroke-width="0.5" stroke-miterlimit="10" x1="102.087" y1="598.324" x2="102.087" y2="605.457"/>
		<line stroke="#000000" stroke-width="0.5" stroke-miterlimit="10" x1="127.838" y1="598.324" x2="127.838" y2="605.457"/>
		<line stroke="#000000" stroke-width="0.5" stroke-miterlimit="10" x1="153.589" y1="598.324" x2="153.589" y2="605.457"/>
		<line stroke="#000000" stroke-width="0.5" stroke-miterlimit="10" x1="179.34" y1="598.324" x2="179.34" y2="605.457"/>
		<line stroke="#000000" stroke-width="0.5" stroke-miterlimit="10" x1="205.091" y1="598.324" x2="205.091" y2="605.457"/>
		<line stroke="#000000" stroke-width="0.5" stroke-miterlimit="10" x1="230.842" y1="598.324" x2="230.842" y2="605.457"/>
		<line stroke="#000000" stroke-width="0.5" stroke-miterlimit="10" x1="256.593" y1="598.324" x2="256.593" y2="605.457"/>
		<line stroke="#000000" stroke-width="0.5" stroke-miterlimit="10" x1="282.344" y1="598.324" x2="282.344" y2="605.457"/>
		<line stroke="#000000" stroke-width="0.5" stroke-miterlimit="10" x1="38.996" y1="536.496" x2="36.331" y2="536.496"/>
		
			<line fill="none" stroke="#000000" stroke-width="0.5" stroke-linejoin="round" stroke-miterlimit="10" x1="38.996" y1="536.496" x2="36.331" y2="536.496"/>
		<path d="M33.166,536.815"/>
		<line stroke="#000000" stroke-width="0.5" stroke-miterlimit="10" x1="38.996" y1="448.494" x2="36.331" y2="448.494"/>
		
			<line fill="none" stroke="#000000" stroke-width="0.5" stroke-linejoin="round" stroke-miterlimit="10" x1="38.996" y1="448.494" x2="36.331" y2="448.494"/>
		<line stroke="#000000" stroke-width="0.5" stroke-miterlimit="10" x1="38.996" y1="360.493" x2="36.331" y2="360.493"/>
		
			<line fill="none" stroke="#000000" stroke-width="0.5" stroke-linejoin="round" stroke-miterlimit="10" x1="38.996" y1="360.493" x2="36.331" y2="360.493"/>
		<line stroke="#000000" stroke-width="0.5" stroke-miterlimit="10" x1="38.996" y1="272.491" x2="36.331" y2="272.491"/>
		
			<line fill="none" stroke="#000000" stroke-width="0.5" stroke-linejoin="round" stroke-miterlimit="10" x1="38.996" y1="272.491" x2="36.331" y2="272.491"/>
		<path d="M33.166,272.811"/>
		<line stroke="#000000" stroke-width="0.5" stroke-miterlimit="10" x1="38.996" y1="184.49" x2="36.331" y2="184.49"/>
		
			<line fill="none" stroke="#000000" stroke-width="0.5" stroke-linejoin="round" stroke-miterlimit="10" x1="38.996" y1="184.49" x2="36.331" y2="184.49"/>
		
			<line fill="none" stroke="#000000" stroke-width="0.5" stroke-linecap="square" stroke-miterlimit="10" x1="38.996" y1="598.324" x2="38.996" y2="155.186"/>
		
			<line fill="none" stroke="#000000" stroke-width="0.5" stroke-linecap="square" stroke-miterlimit="10" x1="38.996" y1="598.324" x2="299.462" y2="598.324"/>
	</g>
	<rect style="opacity:0.5;" x="221.553" y="442.108" fill="#FFFFFF" width="5.284" height="65.965"/>
	<rect style="opacity:0.5;" x="248.21" y="545.105" fill="#FFFFFF" width="5.284" height="42.193"/>
	<rect style="opacity:0.5;" x="170.26" y="375.876" fill="#FFFFFF" width="5.284" height="20.795"/>
	<rect style="opacity:0.5;" x="209.619" y="375.876" fill="#FFFFFF" width="5.284" height="20.795"/>
	<rect style="opacity:0.5;" x="286.14" y="544.13" fill="#FFFFFF" width="5.284" height="44.719"/>
	<rect x="265.425" y="533.765" fill="#FFFFFF" width="10.868" height="48.786"/>
	<rect x="147.637" y="440.978" fill="#FFFFFF" width="7.24" height="78.399"/>
	<g>
		
			<line fill="none" stroke="#000000" stroke-width="0.5" stroke-miterlimit="10" x1="141.052" y1="598.324" x2="141.052" y2="595.824"/>
		
			<line fill="none" stroke="#000000" stroke-width="0.5" stroke-miterlimit="10" stroke-dasharray="4.9111,4.9111" x1="141.052" y1="590.913" x2="141.052" y2="337.992"/>
		
			<line fill="none" stroke="#000000" stroke-width="0.5" stroke-miterlimit="10" x1="141.052" y1="335.537" x2="141.052" y2="333.037"/>
	</g>
	<g>
		
			<line fill="none" stroke="#000000" stroke-width="0.5" stroke-miterlimit="10" x1="115.952" y1="598.324" x2="115.952" y2="595.824"/>
		
			<line fill="none" stroke="#000000" stroke-width="0.5" stroke-miterlimit="10" stroke-dasharray="4.9491,4.9491" x1="115.952" y1="590.875" x2="115.952" y2="197.424"/>
		
			<line fill="none" stroke="#000000" stroke-width="0.5" stroke-miterlimit="10" x1="115.952" y1="194.949" x2="115.952" y2="192.449"/>
	</g>
	<g>
		
			<line fill="none" stroke="#000000" stroke-width="0.5" stroke-miterlimit="10" x1="193.375" y1="598.324" x2="193.372" y2="595.824"/>
		
			<line fill="none" stroke="#000000" stroke-width="0.5" stroke-miterlimit="10" stroke-dasharray="4.9686,4.9686" x1="193.366" y1="590.856" x2="193.023" y2="325.036"/>
		
			<line fill="none" stroke="#000000" stroke-width="0.5" stroke-miterlimit="10" x1="193.02" y1="322.551" x2="193.017" y2="320.051"/>
	</g>
	<rect x="188.451" y="404.127" fill="#FFFFFF" width="8.731" height="77.954"/>
	<rect x="228.368" y="480.177" fill="#FFFFFF" width="6.605" height="48.171"/>
	
		<polyline fill="none" stroke="#DAA520" stroke-width="2" stroke-linecap="square" stroke-linejoin="round" stroke-miterlimit="10" points="
		51.042,578.335 63.918,578.335 63.918,559.376 76.793,559.376 76.793,552.074 89.912,551.834 89.809,502.056 102.685,502.056 
		102.788,478.063 115.939,478.063 115.939,475.365 128.539,475.365 128.539,385.864 141.414,385.864 141.414,447.689 
		154.291,447.689 154.291,406.834 167.167,406.834 167.166,337.463 180.041,337.463 180.041,349.594 192.917,349.594 
		193.017,320.051 205.892,320.051 205.892,283.222 218.768,283.222 218.768,282.202 231.643,282.202 231.593,269.685 
		244.469,269.685 244.469,231.197 257.344,231.197 257.344,244.23 270.22,244.23 270.295,186.562 283.17,186.562 283.17,176.256 
		295.921,176.256 	"/>
	<rect x="112.739" y="266.534" fill="#FFFFFF" width="5.397" height="59.898"/>
	<rect x="228.713" y="550.539" fill="#FFFFFF" width="5.284" height="35.756"/>
	<rect x="190.989" y="552.545" fill="#FFFFFF" width="5.193" height="32.429"/>
</g>
<style>
#g-gottlieb-mobile-img rect, #g-gottlieb-mobile-img circle, #g-gottlieb-mobile-img path, #g-gottlieb-mobile-img line, #g-gottlieb-mobile-img polyline { vector-effect: non-scaling-stroke; }
</style>
</svg>

