<?xml version="1.0" encoding="utf-8"?>
<!-- Generator: Adobe Illustrator 23.1.1, SVG Export Plug-In . SVG Version: 6.00 Build 0)  -->
<svg version="1.2" baseProfile="tiny" id="g-morales-mobile-img" xmlns="http://www.w3.org/2000/svg" xmlns:xlink="http://www.w3.org/1999/xlink"
	 x="0px" y="0px" viewBox="0 0 300 530" xml:space="preserve">
<g>
	<g>
		
			<line fill="none" stroke="#000000" stroke-width="0.5" stroke-miterlimit="10" x1="231.552" y1="492.341" x2="231.551" y2="489.841"/>
		
			<line fill="none" stroke="#000000" stroke-width="0.5" stroke-miterlimit="10" stroke-dasharray="5.0549,5.0549" x1="231.548" y1="484.786" x2="231.387" y2="173.908"/>
		
			<line fill="none" stroke="#000000" stroke-width="0.5" stroke-miterlimit="10" x1="231.386" y1="171.38" x2="231.385" y2="168.88"/>
	</g>
	<rect x="224.15" y="371.925" fill="#FFFFFF" width="14.803" height="54.466"/>
	<g>
		
			<line fill="none" stroke="#000000" stroke-width="0.5" stroke-linecap="square" stroke-miterlimit="10" x1="41.186" y1="440.754" x2="38.657" y2="440.754"/>
		
			<line fill="none" stroke="#000000" stroke-width="0.5" stroke-linecap="square" stroke-miterlimit="10" x1="41.186" y1="440.754" x2="38.657" y2="440.754"/>
		
			<line fill="none" stroke="#000000" stroke-width="0.5" stroke-linecap="square" stroke-miterlimit="10" x1="41.186" y1="361.062" x2="38.657" y2="361.062"/>
		
			<line fill="none" stroke="#000000" stroke-width="0.5" stroke-linecap="square" stroke-miterlimit="10" x1="41.186" y1="361.062" x2="38.657" y2="361.062"/>
		
			<line fill="none" stroke="#000000" stroke-width="0.5" stroke-linecap="square" stroke-miterlimit="10" x1="41.186" y1="281.37" x2="38.657" y2="281.37"/>
		
			<line fill="none" stroke="#000000" stroke-width="0.5" stroke-linecap="square" stroke-miterlimit="10" x1="41.186" y1="281.37" x2="38.657" y2="281.37"/>
		
			<line fill="none" stroke="#000000" stroke-width="0.5" stroke-linecap="square" stroke-miterlimit="10" x1="41.186" y1="201.678" x2="38.657" y2="201.678"/>
		
			<line fill="none" stroke="#000000" stroke-width="0.5" stroke-linecap="square" stroke-miterlimit="10" x1="41.186" y1="201.678" x2="38.657" y2="201.678"/>
		
			<line fill="none" stroke="#000000" stroke-width="0.5" stroke-linecap="square" stroke-miterlimit="10" x1="41.186" y1="121.986" x2="38.657" y2="121.986"/>
		
			<line fill="none" stroke="#000000" stroke-width="0.5" stroke-linecap="square" stroke-miterlimit="10" x1="41.186" y1="121.986" x2="38.657" y2="121.986"/>
		
			<line fill="none" stroke="#000000" stroke-width="0.5" stroke-linecap="square" stroke-miterlimit="10" x1="41.186" y1="492.46" x2="41.186" y2="113.465"/>
		
			<line fill="none" stroke="#000000" stroke-width="0.5" stroke-linecap="square" stroke-miterlimit="10" x1="41.186" y1="492.46" x2="272.187" y2="492.46"/>
	</g>
	
		<line fill="none" stroke="#000000" stroke-width="0.5" stroke-linecap="square" stroke-miterlimit="10" x1="272.187" y1="492.46" x2="272.187" y2="498.561"/>
	
		<line fill="none" stroke="#000000" stroke-width="0.5" stroke-linecap="square" stroke-miterlimit="10" x1="231.552" y1="492.46" x2="231.552" y2="498.561"/>
	
		<line fill="none" stroke="#000000" stroke-width="0.5" stroke-linecap="square" stroke-miterlimit="10" x1="192.672" y1="492.952" x2="192.672" y2="499.053"/>
	
		<line fill="none" stroke="#000000" stroke-width="0.5" stroke-linecap="square" stroke-miterlimit="10" x1="152.754" y1="492.591" x2="152.754" y2="498.692"/>
	
		<line fill="none" stroke="#000000" stroke-width="0.5" stroke-linecap="square" stroke-miterlimit="10" x1="112.245" y1="492.46" x2="112.245" y2="498.561"/>
	
		<line fill="none" stroke="#000000" stroke-width="0.5" stroke-linecap="square" stroke-miterlimit="10" x1="71.348" y1="492.46" x2="71.348" y2="498.561"/>
	<g>
		<line fill="none" stroke="#000000" stroke-width="0.5" stroke-miterlimit="10" x1="53.541" y1="492.46" x2="53.541" y2="489.96"/>
		
			<line fill="none" stroke="#000000" stroke-width="0.5" stroke-miterlimit="10" stroke-dasharray="4.9485,4.9485" x1="53.541" y1="485.012" x2="53.541" y2="190.575"/>
		
			<line fill="none" stroke="#000000" stroke-width="0.5" stroke-miterlimit="10" x1="53.541" y1="188.101" x2="53.541" y2="185.601"/>
	</g>
	<g>
		
			<line fill="none" stroke="#000000" stroke-width="0.5" stroke-miterlimit="10" x1="92.056" y1="492.341" x2="92.058" y2="489.841"/>
		
			<line fill="none" stroke="#000000" stroke-width="0.5" stroke-miterlimit="10" stroke-dasharray="4.8843,4.8843" x1="92.062" y1="484.957" x2="92.202" y2="292.026"/>
		
			<line fill="none" stroke="#000000" stroke-width="0.5" stroke-miterlimit="10" x1="92.204" y1="289.583" x2="92.206" y2="287.083"/>
	</g>
	
		<polyline fill="none" stroke="#DAA520" stroke-width="2" stroke-linecap="square" stroke-linejoin="round" stroke-miterlimit="10" points="
		53.993,475.233 72.868,475.233 73.063,387.448 91.938,387.448 91.938,312.884 112.553,312.884 112.553,328.476 132.639,328.476 
		132.639,309.748 152.094,309.748 152.094,296.858 172.954,296.858 172.904,220.974 192.437,220.974 192.437,216.505 
		212.681,216.657 231.384,216.657 231.384,168.88 251.374,168.88 251.374,131.712 272.091,131.712 272.091,151.771 291.815,151.771 
			"/>
	<rect x="45.591" y="236.832" fill="#FFFFFF" width="14.803" height="30.738"/>
	<rect style="opacity:0.5;" x="243.871" y="134.246" fill="#FFFFFF" width="50.425" height="14.694"/>
</g>
<style>
#g-morales-mobile-img rect, #g-morales-mobile-img circle, #g-morales-mobile-img path, #g-morales-mobile-img line, #g-morales-mobile-img polyline { vector-effect: non-scaling-stroke; }
</style>
</svg>

