<?xml version="1.0" encoding="utf-8"?>
<!-- Generator: Adobe Illustrator 23.1.1, SVG Export Plug-In . SVG Version: 6.00 Build 0)  -->
<svg version="1.2" baseProfile="tiny" id="g-morales-desktop-img" xmlns="http://www.w3.org/2000/svg" xmlns:xlink="http://www.w3.org/1999/xlink"
	 x="0px" y="0px" viewBox="0 0 650 550" xml:space="preserve">
<g>
	<g>
		
			<line fill="none" stroke="#000000" stroke-width="0.5" stroke-miterlimit="10" x1="492.788" y1="501.517" x2="492.785" y2="499.017"/>
		
			<line fill="none" stroke="#000000" stroke-width="0.5" stroke-miterlimit="10" stroke-dasharray="5.0549,5.0549" x1="492.779" y1="493.962" x2="492.422" y2="183.083"/>
		
			<line fill="none" stroke="#000000" stroke-width="0.5" stroke-miterlimit="10" x1="492.419" y1="180.556" x2="492.416" y2="178.056"/>
	</g>
	<rect x="476.395" y="381.101" fill="#FFFFFF" width="32.782" height="54.466"/>
	<g>
		
			<line fill="none" stroke="#000000" stroke-width="0.5" stroke-linecap="square" stroke-miterlimit="10" x1="71.225" y1="449.93" x2="65.623" y2="449.93"/>
		
			<line fill="none" stroke="#000000" stroke-width="0.5" stroke-linecap="square" stroke-miterlimit="10" x1="71.225" y1="449.93" x2="65.623" y2="449.93"/>
		
			<line fill="none" stroke="#000000" stroke-width="0.5" stroke-linecap="square" stroke-miterlimit="10" x1="71.225" y1="370.237" x2="65.623" y2="370.237"/>
		
			<line fill="none" stroke="#000000" stroke-width="0.5" stroke-linecap="square" stroke-miterlimit="10" x1="71.225" y1="370.237" x2="65.623" y2="370.237"/>
		
			<line fill="none" stroke="#000000" stroke-width="0.5" stroke-linecap="square" stroke-miterlimit="10" x1="71.225" y1="290.545" x2="65.623" y2="290.545"/>
		
			<line fill="none" stroke="#000000" stroke-width="0.5" stroke-linecap="square" stroke-miterlimit="10" x1="71.225" y1="290.545" x2="65.623" y2="290.545"/>
		
			<line fill="none" stroke="#000000" stroke-width="0.5" stroke-linecap="square" stroke-miterlimit="10" x1="71.225" y1="210.853" x2="65.623" y2="210.853"/>
		
			<line fill="none" stroke="#000000" stroke-width="0.5" stroke-linecap="square" stroke-miterlimit="10" x1="71.225" y1="210.853" x2="65.623" y2="210.853"/>
		
			<line fill="none" stroke="#000000" stroke-width="0.5" stroke-linecap="square" stroke-miterlimit="10" x1="71.225" y1="131.161" x2="65.623" y2="131.161"/>
		
			<line fill="none" stroke="#000000" stroke-width="0.5" stroke-linecap="square" stroke-miterlimit="10" x1="71.225" y1="131.161" x2="65.623" y2="131.161"/>
		
			<line fill="none" stroke="#000000" stroke-width="0.5" stroke-linecap="square" stroke-miterlimit="10" x1="71.225" y1="501.636" x2="71.225" y2="122.64"/>
		
			<line fill="none" stroke="#000000" stroke-width="0.5" stroke-linecap="square" stroke-miterlimit="10" x1="71.225" y1="501.636" x2="582.772" y2="501.636"/>
	</g>
	
		<line fill="none" stroke="#000000" stroke-width="0.5" stroke-linecap="square" stroke-miterlimit="10" x1="582.772" y1="501.636" x2="582.772" y2="507.736"/>
	
		<line fill="none" stroke="#000000" stroke-width="0.5" stroke-linecap="square" stroke-miterlimit="10" x1="492.786" y1="501.636" x2="492.786" y2="507.736"/>
	
		<line fill="none" stroke="#000000" stroke-width="0.5" stroke-linecap="square" stroke-miterlimit="10" x1="406.689" y1="502.127" x2="406.689" y2="508.228"/>
	
		<line fill="none" stroke="#000000" stroke-width="0.5" stroke-linecap="square" stroke-miterlimit="10" x1="318.29" y1="501.767" x2="318.29" y2="507.867"/>
	
		<line fill="none" stroke="#000000" stroke-width="0.5" stroke-linecap="square" stroke-miterlimit="10" x1="228.584" y1="501.636" x2="228.584" y2="507.736"/>
	
		<line fill="none" stroke="#000000" stroke-width="0.5" stroke-linecap="square" stroke-miterlimit="10" x1="138.018" y1="501.636" x2="138.018" y2="507.736"/>
	<g>
		
			<line fill="none" stroke="#000000" stroke-width="0.5" stroke-miterlimit="10" x1="98.584" y1="501.636" x2="98.584" y2="499.136"/>
		
			<line fill="none" stroke="#000000" stroke-width="0.5" stroke-miterlimit="10" stroke-dasharray="4.9485,4.9485" x1="98.584" y1="494.187" x2="98.584" y2="199.751"/>
		
			<line fill="none" stroke="#000000" stroke-width="0.5" stroke-miterlimit="10" x1="98.584" y1="197.276" x2="98.584" y2="194.776"/>
	</g>
	<g>
		
			<line fill="none" stroke="#000000" stroke-width="0.5" stroke-miterlimit="10" x1="183.876" y1="501.517" x2="183.88" y2="499.017"/>
		
			<line fill="none" stroke="#000000" stroke-width="0.5" stroke-miterlimit="10" stroke-dasharray="4.8843,4.8843" x1="183.888" y1="494.132" x2="184.199" y2="301.201"/>
		
			<line fill="none" stroke="#000000" stroke-width="0.5" stroke-miterlimit="10" x1="184.203" y1="298.759" x2="184.207" y2="296.259"/>
	</g>
	
		<polyline fill="none" stroke="#DAA520" stroke-width="2" stroke-linecap="square" stroke-linejoin="round" stroke-miterlimit="10" points="
		99.584,484.409 141.383,484.409 141.814,396.624 183.613,396.624 183.613,322.06 229.266,322.06 229.266,337.651 273.746,337.651 
		273.746,318.924 316.828,318.924 316.828,306.034 363.022,306.034 362.911,230.149 406.166,230.149 406.166,225.68 
		450.997,225.832 492.415,225.832 492.415,178.056 536.683,178.056 536.683,140.887 582.56,140.887 582.56,160.946 626.238,160.946 
			"/>
</g>
<style>
#g-morales-desktop-img rect, #g-morales-desktop-img circle, #g-morales-desktop-img path, #g-morales-desktop-img line, #g-morales-desktop-img polyline { vector-effect: non-scaling-stroke; }
</style>
</svg>

