<?xml version="1.0" encoding="utf-8"?>
<!-- Generator: Adobe Illustrator 23.1.1, SVG Export Plug-In . SVG Version: 6.00 Build 0)  -->
<svg version="1.2" baseProfile="tiny" id="g-tavares-mobile-img" xmlns="http://www.w3.org/2000/svg" xmlns:xlink="http://www.w3.org/1999/xlink"
	 x="0px" y="0px" viewBox="0 0 300 480" xml:space="preserve">
<g>
	<g>
		
			<line fill="none" stroke="#000000" stroke-width="0.5" stroke-miterlimit="10" x1="155.082" y1="446.655" x2="155.079" y2="444.155"/>
		
			<line fill="none" stroke="#000000" stroke-width="0.5" stroke-miterlimit="10" stroke-dasharray="5.0868,5.0868" x1="155.074" y1="439.068" x2="154.898" y2="278.834"/>
		
			<line fill="none" stroke="#000000" stroke-width="0.5" stroke-miterlimit="10" x1="154.895" y1="276.291" x2="154.892" y2="273.791"/>
	</g>
	<g>
		
			<line fill="none" stroke="#000000" stroke-width="0.5" stroke-linecap="square" stroke-miterlimit="10" x1="42.201" y1="398.584" x2="39.721" y2="398.584"/>
		
			<line fill="none" stroke="#000000" stroke-width="0.5" stroke-linecap="square" stroke-miterlimit="10" x1="42.201" y1="329.243" x2="39.721" y2="329.243"/>
		
			<line fill="none" stroke="#000000" stroke-width="0.5" stroke-linecap="square" stroke-miterlimit="10" x1="42.201" y1="259.902" x2="39.721" y2="259.902"/>
		
			<line fill="none" stroke="#000000" stroke-width="0.5" stroke-linecap="square" stroke-miterlimit="10" x1="42.201" y1="190.561" x2="39.721" y2="190.561"/>
		
			<line fill="none" stroke="#000000" stroke-width="0.5" stroke-linecap="square" stroke-miterlimit="10" x1="42.201" y1="121.219" x2="39.721" y2="121.219"/>
		
			<line fill="none" stroke="#000000" stroke-width="0.5" stroke-linecap="square" stroke-miterlimit="10" x1="42.201" y1="446.725" x2="42.201" y2="115.831"/>
		
			<line fill="none" stroke="#000000" stroke-width="0.5" stroke-linecap="square" stroke-miterlimit="10" x1="42.201" y1="446.725" x2="285.062" y2="446.725"/>
	</g>
	<line stroke="#000000" stroke-width="0.5" stroke-miterlimit="10" x1="273.004" y1="447.229" x2="273.004" y2="452.721"/>
	
		<line fill="none" stroke="#000000" stroke-width="0.5" stroke-miterlimit="10" x1="273.004" y1="446.727" x2="273.004" y2="452.218"/>
	
		<line fill="none" stroke="#000000" stroke-width="0.5" stroke-miterlimit="10" x1="234.065" y1="446.624" x2="234.065" y2="452.115"/>
	
		<line fill="none" stroke="#000000" stroke-width="0.5" stroke-miterlimit="10" x1="195.06" y1="446.672" x2="195.06" y2="452.164"/>
	
		<line fill="none" stroke="#000000" stroke-width="0.5" stroke-miterlimit="10" x1="155.081" y1="447.074" x2="155.081" y2="452.565"/>
	
		<line fill="none" stroke="#000000" stroke-width="0.5" stroke-miterlimit="10" x1="116.222" y1="446.52" x2="116.222" y2="452.011"/>
	
		<line fill="none" stroke="#000000" stroke-width="0.5" stroke-linecap="square" stroke-miterlimit="10" x1="77.115" y1="447.247" x2="77.115" y2="452.573"/>
	<g>
		<line fill="none" stroke="#000000" stroke-width="0.5" stroke-miterlimit="10" x1="57.08" y1="446.655" x2="57.08" y2="444.155"/>
		
			<line fill="none" stroke="#000000" stroke-width="0.5" stroke-miterlimit="10" stroke-dasharray="4.9238,4.9238" x1="57.08" y1="439.231" x2="57.08" y2="254.589"/>
		<line fill="none" stroke="#000000" stroke-width="0.5" stroke-miterlimit="10" x1="57.08" y1="252.127" x2="57.08" y2="249.627"/>
	</g>
	<rect style="opacity:0.5;" x="143.143" y="341.44" fill="#FFFFFF" width="4.917" height="54.605"/>
	<rect style="opacity:0.5;" x="162.961" y="341.44" fill="#FFFFFF" width="4.917" height="54.605"/>
	
		<polyline fill="none" stroke="#DAA520" stroke-width="2" stroke-linecap="square" stroke-linejoin="round" stroke-miterlimit="10" points="
		56.494,431.684 76.366,431.684 76.366,355.348 95.832,355.348 95.832,283.926 115.473,283.926 115.473,300.82 135.22,300.82 
		135.22,285.149 154.892,285.149 154.892,273.791 174.303,273.791 174.303,210.281 194.311,210.281 194.311,203.462 
		213.576,203.462 233.316,203.462 233.316,177.722 252.831,177.722 252.75,130.872 272.015,130.872 272.098,173.024 
		291.363,173.024 	"/>
	<rect x="152.538" y="324.25" fill="#FFFFFF" width="6.659" height="70.431"/>
	<rect style="opacity:0.5;" x="240.938" y="150.445" fill="#FFFFFF" width="50.425" height="15.396"/>
</g>
<style>
#g-tavares-mobile-img rect, #g-tavares-mobile-img circle, #g-tavares-mobile-img path, #g-tavares-mobile-img line, #g-tavares-mobile-img polyline { vector-effect: non-scaling-stroke; }
</style>
</svg>

