<?xml version="1.0" encoding="utf-8"?>
<!-- Generator: Adobe Illustrator 23.1.1, SVG Export Plug-In . SVG Version: 6.00 Build 0)  -->
<svg version="1.2" baseProfile="tiny" id="g-ccrb-review-process-mobile-img" xmlns="http://www.w3.org/2000/svg" xmlns:xlink="http://www.w3.org/1999/xlink"
	 x="0px" y="0px" viewBox="0 0 300 1500" xml:space="preserve">
<g>
	<rect x="19" y="1280" fill="#F2F2F2" width="265" height="97.161"/>
	<path fill="#DA0020" d="M157.979,892H32.021c-3.325,0-6.021-2.695-6.021-6.021v-24.959c0-3.325,2.695-6.021,6.021-6.021h125.959
		c3.325,0,6.021,2.695,6.021,6.021v24.959C164,889.305,161.305,892,157.979,892z"/>
	<g style="opacity:0.6;">
		<path fill="none" stroke="#777777" stroke-width="0.75" stroke-miterlimit="10" d="M59.097,225.73l0.297-45.149
			c0.084-12.69,10.438-22.909,23.128-22.826"/>
		<g>
			<path fill="#777777" d="M62.73,220.628c-0.174-0.112-0.406-0.062-0.519,0.112l-3.114,4.819l-3.05-4.86
				c-0.11-0.175-0.342-0.229-0.517-0.118c-0.175,0.11-0.227,0.343-0.118,0.517l3.363,5.358c0.068,0.108,0.187,0.175,0.315,0.176
				s0.248-0.064,0.318-0.171l3.433-5.314c0.04-0.062,0.059-0.132,0.06-0.201C62.903,220.822,62.842,220.701,62.73,220.628z"/>
		</g>
	</g>
	<rect x="18.789" y="183.161" fill="#FFFFFF" width="105" height="20"/>
	<path fill="#DA0020" d="M171.769,628.161H17.81c-3.325,0-6.021-2.695-6.021-6.021v-6.959c0-3.325,2.695-6.021,6.021-6.021h153.959
		c3.325,0,6.021,2.695,6.021,6.021v6.959C177.789,625.466,175.094,628.161,171.769,628.161z"/>
	<g>
		<path fill="none" stroke="#000000" stroke-width="0.75" stroke-miterlimit="10" d="M242.504,227.113l-0.235-45.996
			c-0.066-12.923-10.596-23.346-23.519-23.28"/>
		<g>
			<path d="M246.078,221.969c-0.175-0.11-0.407-0.058-0.517,0.118l-3.057,4.855l-3.107-4.824c-0.112-0.174-0.345-0.225-0.518-0.112
				c-0.174,0.112-0.223,0.346-0.112,0.518l3.426,5.319c0.069,0.108,0.189,0.173,0.317,0.172c0.128-0.001,0.247-0.067,0.316-0.175
				l3.371-5.353c0.039-0.062,0.058-0.133,0.057-0.201C246.252,222.161,246.19,222.04,246.078,221.969z"/>
		</g>
	</g>
	
		<rect x="179.059" y="183.998" transform="matrix(-1 -0.0015 0.0015 -1 462.8298 388.3405)" fill="#FFFFFF" width="105" height="20"/>
	<g>
		<path fill="none" stroke="#000000" stroke-width="0.75" stroke-miterlimit="10" d="M155.289,106.161c0,18.194,0,24.054,0,25.942"
			/>
		<g>
			<path d="M151.69,126.973c0.174-0.111,0.406-0.06,0.518,0.115l3.082,4.839l3.082-4.839c0.111-0.175,0.344-0.226,0.518-0.115
				s0.225,0.345,0.115,0.518l-3.398,5.336c-0.069,0.108-0.188,0.174-0.316,0.174s-0.248-0.066-0.316-0.174l-3.398-5.336
				c-0.04-0.062-0.059-0.132-0.059-0.201C151.516,127.166,151.578,127.044,151.69,126.973z"/>
		</g>
	</g>
	<g>
		<path fill="none" stroke="#000000" stroke-width="0.75" stroke-miterlimit="10" d="M242.424,285.014
			c-0.025,16.753-0.033,22.28-0.036,24.103"/>
		<g>
			<path d="M238.796,303.981c0.175-0.111,0.407-0.059,0.518,0.116l3.075,4.844l3.089-4.835c0.112-0.175,0.344-0.226,0.518-0.114
				c0.174,0.112,0.224,0.345,0.114,0.518l-3.406,5.331c-0.069,0.108-0.188,0.173-0.317,0.173s-0.247-0.066-0.316-0.174l-3.391-5.341
				c-0.039-0.062-0.058-0.132-0.058-0.201C238.622,304.174,238.684,304.053,238.796,303.981z"/>
		</g>
	</g>
	<g>
		<path fill="none" stroke="#000000" stroke-width="0.75" stroke-miterlimit="10" d="M37,342.894v-10.447
			c0-4.576,3.71-8.286,8.286-8.286h96.355"/>
		<g>
			<path d="M40.6,337.768c-0.174-0.111-0.406-0.06-0.518,0.115L37,342.722l-3.082-4.839c-0.111-0.175-0.344-0.226-0.518-0.115
				s-0.225,0.345-0.115,0.518l3.398,5.336c0.069,0.108,0.188,0.174,0.316,0.174s0.248-0.066,0.316-0.174l3.398-5.336
				c0.04-0.062,0.059-0.132,0.059-0.201C40.773,337.961,40.712,337.84,40.6,337.768z"/>
		</g>
	</g>
	<g>
		<path fill="none" stroke="#000000" stroke-width="0.75" stroke-miterlimit="10" d="M92.251,342.915v-10.447
			c0-4.576,3.709-8.286,8.286-8.286h41.104"/>
		<g>
			<path d="M95.851,337.789c-0.174-0.111-0.406-0.06-0.518,0.115l-3.082,4.839l-3.082-4.839c-0.111-0.175-0.344-0.226-0.518-0.115
				s-0.225,0.345-0.115,0.518l3.398,5.336c0.069,0.108,0.188,0.174,0.316,0.174s0.248-0.066,0.316-0.174l3.398-5.336
				c0.04-0.062,0.059-0.132,0.059-0.201C96.025,337.982,95.963,337.861,95.851,337.789z"/>
		</g>
	</g>
	<g>
		<path fill="none" stroke="#000000" stroke-width="0.75" stroke-miterlimit="10" d="M181.256,334.946c0,7.702,0,10.857,0,12.15"/>
		<g>
			<path d="M177.656,341.965c0.174-0.111,0.406-0.06,0.518,0.115l3.082,4.839l3.082-4.839c0.111-0.175,0.344-0.226,0.518-0.115
				s0.225,0.345,0.115,0.518l-3.398,5.336c-0.069,0.108-0.188,0.174-0.316,0.174s-0.248-0.066-0.316-0.174l-3.398-5.336
				c-0.04-0.062-0.059-0.132-0.059-0.201C177.482,342.158,177.544,342.036,177.656,341.965z"/>
		</g>
	</g>
	<g>
		<path fill="none" stroke="#000000" stroke-width="0.75" stroke-miterlimit="10" d="M217.289,488c0,143.34,0,178.462,0,184.103"/>
		<g>
			<path d="M213.69,666.973c0.174-0.111,0.406-0.06,0.518,0.115l3.082,4.839l3.082-4.839c0.111-0.175,0.344-0.226,0.518-0.115
				s0.225,0.345,0.115,0.518l-3.398,5.336c-0.069,0.108-0.188,0.174-0.316,0.174s-0.248-0.066-0.316-0.174l-3.398-5.336
				c-0.04-0.062-0.059-0.132-0.059-0.201C213.516,667.166,213.578,667.044,213.69,666.973z"/>
		</g>
	</g>
	<g>
		<path fill="none" stroke="#000000" stroke-width="0.75" stroke-miterlimit="10" d="M163.311,427.971c0,20.728,0,28.033,0,30.293"
			/>
		<g>
			<path d="M159.712,453.134c0.174-0.111,0.406-0.06,0.518,0.115l3.082,4.839l3.082-4.839c0.111-0.175,0.344-0.226,0.518-0.115
				s0.225,0.345,0.115,0.518l-3.398,5.336c-0.069,0.108-0.188,0.174-0.316,0.174s-0.248-0.066-0.316-0.174l-3.398-5.336
				c-0.04-0.062-0.059-0.132-0.059-0.201C159.538,453.327,159.599,453.206,159.712,453.134z"/>
		</g>
	</g>
	<g>
		<path fill="none" stroke="#000000" stroke-width="0.75" stroke-miterlimit="10" d="M225.5,964c0,24.366,0,32.663,0,35.103"/>
		<g>
			<path d="M221.9,993.973c0.174-0.111,0.406-0.06,0.518,0.115l3.082,4.839l3.082-4.839c0.111-0.175,0.344-0.226,0.518-0.115
				s0.225,0.345,0.115,0.518l-3.398,5.336c-0.069,0.108-0.188,0.174-0.316,0.174s-0.248-0.066-0.316-0.174l-3.398-5.336
				c-0.04-0.062-0.059-0.132-0.059-0.201C221.727,994.166,221.788,994.044,221.9,993.973z"/>
		</g>
	</g>
	<g>
		<path fill="none" stroke="#000000" stroke-width="0.75" stroke-miterlimit="10" d="M225.5,1086c0,19.084,0,25.931,0,28.103"/>
		<g>
			<path d="M221.9,1108.973c0.174-0.111,0.406-0.06,0.518,0.115l3.082,4.839l3.082-4.839c0.111-0.175,0.344-0.226,0.518-0.115
				s0.225,0.345,0.115,0.518l-3.398,5.336c-0.069,0.108-0.188,0.174-0.316,0.174s-0.248-0.066-0.316-0.174l-3.398-5.336
				c-0.04-0.062-0.059-0.132-0.059-0.201C221.727,1109.166,221.788,1109.044,221.9,1108.973z"/>
		</g>
	</g>
	<path fill="#DA0020" d="M286.979,1202H161.021c-3.325,0-6.021-2.696-6.021-6.021v-24.959c0-3.325,2.695-6.021,6.021-6.021h125.959
		c3.325,0,6.021,2.696,6.021,6.021v24.959C293,1199.304,290.305,1202,286.979,1202z"/>
	<g>
		<path fill="none" stroke="#000000" stroke-width="0.75" stroke-miterlimit="10" d="M225.5,749c0,51.818,0,136.884,0,160.102"/>
		<g>
			<path d="M221.9,903.973c0.174-0.111,0.406-0.06,0.518,0.115l3.082,4.839l3.082-4.839c0.111-0.175,0.344-0.226,0.518-0.115
				s0.225,0.345,0.115,0.518l-3.398,5.336c-0.069,0.108-0.188,0.174-0.316,0.174s-0.248-0.066-0.316-0.174l-3.398-5.336
				c-0.04-0.062-0.059-0.132-0.059-0.201C221.727,904.166,221.788,904.044,221.9,903.973z"/>
		</g>
	</g>
	<rect x="170" y="768" fill="#FFFFFF" width="111" height="16"/>
	<g>
		<path fill="none" stroke="#000000" stroke-width="0.75" stroke-miterlimit="10" d="M255.94,334.946c0,7.702,0,10.857,0,12.15"/>
		<g>
			<path d="M252.34,341.965c0.174-0.111,0.406-0.06,0.518,0.115l3.082,4.839l3.082-4.839c0.111-0.175,0.344-0.226,0.518-0.115
				s0.225,0.345,0.115,0.518l-3.398,5.336c-0.069,0.108-0.188,0.174-0.316,0.174s-0.248-0.066-0.316-0.174l-3.398-5.336
				c-0.04-0.062-0.059-0.132-0.059-0.201C252.167,342.158,252.228,342.036,252.34,341.965z"/>
		</g>
	</g>
	<path fill="none" stroke="#000000" stroke-width="0.75" stroke-miterlimit="10" d="M37.358,393.555v11.348
		c0,4.576,3.71,8.286,8.286,8.286h63.955"/>
	<path fill="none" stroke="#000000" stroke-width="0.75" stroke-miterlimit="10" d="M92.609,393.533v11.348
		c0,4.576,3.71,8.286,8.286,8.286h8.704"/>
	<path fill="none" stroke="#000000" stroke-width="0.75" stroke-miterlimit="10" d="M181.118,388.641c0,13.046,0,13.046,0,13.046"/>
	<path fill="none" stroke="#000000" stroke-width="0.75" stroke-miterlimit="10" d="M257.156,393.455v11.348
		c0,4.576-3.71,8.286-8.286,8.286h-34.509h-3.601"/>
	<g>
		<path fill="none" stroke="#000000" stroke-width="0.75" stroke-miterlimit="10" d="M94.708,487.549c0,14.224,0,19.667,0,21.553"/>
		<g>
			<path d="M91.108,503.973c0.174-0.111,0.406-0.06,0.518,0.115l3.082,4.839l3.082-4.839c0.111-0.175,0.344-0.226,0.518-0.115
				s0.225,0.345,0.115,0.518l-3.398,5.336c-0.069,0.108-0.188,0.174-0.316,0.174s-0.248-0.066-0.316-0.174l-3.398-5.336
				c-0.04-0.062-0.059-0.132-0.059-0.201C90.934,504.166,90.996,504.044,91.108,503.973z"/>
		</g>
	</g>
	<g>
		<path fill="none" stroke="#000000" stroke-width="0.75" stroke-miterlimit="10" d="M99.273,774.631l-0.143-51.844
			c-0.058-8.768,7.002-15.924,15.771-15.982L152,706.5"/>
		<g>
			<path d="M102.859,769.495c-0.175-0.111-0.407-0.059-0.517,0.116l-3.069,4.848l-3.095-4.831c-0.112-0.174-0.344-0.225-0.518-0.114
				c-0.174,0.112-0.224,0.345-0.114,0.518l3.413,5.327c0.069,0.108,0.189,0.173,0.317,0.173s0.247-0.066,0.316-0.174l3.384-5.345
				c0.039-0.062,0.058-0.132,0.058-0.201C103.033,769.688,102.971,769.567,102.859,769.495z"/>
		</g>
	</g>
	<rect x="47" y="735" fill="#FFFFFF" width="111" height="16"/>
</g>
<style>
#g-ccrb-review-process-mobile-img rect, #g-ccrb-review-process-mobile-img circle, #g-ccrb-review-process-mobile-img path, #g-ccrb-review-process-mobile-img line, #g-ccrb-review-process-mobile-img polyline { vector-effect: non-scaling-stroke; }
</style>
</svg>

