<?xml version="1.0" encoding="utf-8"?>
<!-- Generator: Adobe Illustrator 23.1.1, SVG Export Plug-In . SVG Version: 6.00 Build 0)  -->
<svg version="1.2" baseProfile="tiny" id="g-ccrb-review-process-desktop_tablet-img" xmlns="http://www.w3.org/2000/svg" xmlns:xlink="http://www.w3.org/1999/xlink"
	 x="0px" y="0px" viewBox="0 0 600 1000" xml:space="preserve">
<g>
	<rect x="36" y="831" fill="#F2F2F2" width="320" height="103"/>
	<path fill="#DA0020" d="M337.979,781H212.021c-3.325,0-6.021-2.695-6.021-6.021v-24.959c0-3.325,2.695-6.021,6.021-6.021h125.959
		c3.325,0,6.021,2.695,6.021,6.021v24.959C344,778.305,341.305,781,337.979,781z"/>
	<g style="opacity:0.6;">
		<path fill="none" stroke="#777777" stroke-width="0.75" stroke-miterlimit="10" d="M122.318,233.516l0.245-37.138
			c0.069-10.482,8.622-18.924,19.105-18.855L217,177.5"/>
		<g>
			<path fill="#777777" d="M125.952,228.414c-0.174-0.112-0.406-0.062-0.519,0.112l-3.114,4.819l-3.05-4.86
				c-0.11-0.175-0.342-0.229-0.517-0.118c-0.175,0.11-0.227,0.343-0.118,0.517l3.363,5.358c0.068,0.108,0.187,0.175,0.315,0.176
				c0.128,0.001,0.248-0.064,0.318-0.171l3.433-5.314c0.04-0.062,0.06-0.132,0.06-0.201
				C126.124,228.608,126.064,228.486,125.952,228.414z"/>
		</g>
	</g>
	<rect x="72" y="193" fill="#FFFFFF" width="105" height="20"/>
	<path fill="#DA0020" d="M190.979,644H37.021c-3.325,0-6.021-2.695-6.021-6.021v-6.959c0-3.325,2.695-6.021,6.021-6.021h153.959
		c3.325,0,6.021,2.695,6.021,6.021v6.959C197,641.305,194.305,644,190.979,644z"/>
	<g>
		<path fill="none" stroke="#000000" stroke-width="0.75" stroke-miterlimit="10" d="M426.491,233.218l-0.245-37.138
			c-0.069-10.482-8.623-18.924-19.105-18.855l-23.332-0.023"/>
		<g>
			<path d="M430.057,228.069c-0.175-0.11-0.407-0.057-0.517,0.118l-3.05,4.86l-3.114-4.819c-0.112-0.174-0.345-0.224-0.519-0.112
				c-0.174,0.112-0.223,0.346-0.112,0.519l3.434,5.314c0.07,0.108,0.189,0.172,0.318,0.171s0.247-0.067,0.315-0.176l3.363-5.358
				c0.039-0.063,0.058-0.133,0.057-0.201C430.232,228.261,430.17,228.14,430.057,228.069z"/>
		</g>
	</g>
	
		<rect x="371.81" y="192.703" transform="matrix(-1 -1.224647e-16 1.224647e-16 -1 848.6191 405.405)" fill="#FFFFFF" width="105" height="20"/>
	<g>
		<path fill="none" stroke="#000000" stroke-width="0.75" stroke-miterlimit="10" d="M295.5,119c0,25.486,0,32.929,0,35.103"/>
		<g>
			<path d="M291.9,148.973c0.174-0.111,0.406-0.06,0.518,0.115l3.082,4.839l3.082-4.839c0.111-0.175,0.344-0.226,0.518-0.115
				s0.225,0.345,0.115,0.518l-3.398,5.336c-0.069,0.108-0.188,0.174-0.316,0.174s-0.248-0.066-0.316-0.174l-3.398-5.336
				c-0.04-0.062-0.059-0.132-0.059-0.201C291.727,149.166,291.788,149.044,291.9,148.973z"/>
		</g>
	</g>
	<g>
		<path fill="none" stroke="#000000" stroke-width="0.75" stroke-miterlimit="10" d="M426.5,263c0,16.753,0,22.28,0,24.103"/>
		<g>
			<path d="M422.9,281.973c0.174-0.111,0.406-0.06,0.518,0.115l3.082,4.839l3.082-4.839c0.111-0.175,0.344-0.226,0.518-0.115
				s0.225,0.345,0.115,0.518l-3.398,5.336c-0.069,0.108-0.188,0.174-0.316,0.174s-0.248-0.066-0.316-0.174l-3.398-5.336
				c-0.04-0.062-0.059-0.132-0.059-0.201C422.727,282.166,422.788,282.044,422.9,281.973z"/>
		</g>
	</g>
	<g>
		<path fill="none" stroke="#000000" stroke-width="0.75" stroke-miterlimit="10" d="M55,339.721v-20.844
			C55,310.108,62.108,303,70.877,303h268.746"/>
		<g>
			<path d="M58.6,334.596c-0.174-0.111-0.406-0.06-0.518,0.115L55,339.55l-3.082-4.839c-0.111-0.175-0.344-0.226-0.518-0.115
				s-0.225,0.345-0.115,0.518l3.398,5.336c0.069,0.108,0.188,0.174,0.316,0.174s0.248-0.066,0.316-0.174l3.398-5.336
				c0.04-0.062,0.059-0.132,0.059-0.201C58.773,334.789,58.712,334.667,58.6,334.596z"/>
		</g>
	</g>
	<path fill="none" stroke="#000000" stroke-width="0.75" stroke-miterlimit="10" d="M339.623,356.5"/>
	<g>
		<path fill="none" stroke="#000000" stroke-width="0.75" stroke-miterlimit="10" d="M204.947,339.763v-20.844
			c0-8.769,7.108-15.877,15.877-15.877h116.799"/>
		<g>
			<path d="M208.547,334.637c-0.174-0.111-0.406-0.06-0.518,0.115l-3.082,4.839l-3.082-4.839c-0.111-0.175-0.344-0.226-0.518-0.115
				s-0.225,0.345-0.115,0.518l3.398,5.336c0.069,0.108,0.188,0.174,0.316,0.174s0.248-0.066,0.316-0.174l3.398-5.336
				c0.04-0.062,0.059-0.132,0.059-0.201C208.72,334.83,208.659,334.709,208.547,334.637z"/>
		</g>
	</g>
	<g>
		<path fill="none" stroke="#000000" stroke-width="0.75" stroke-miterlimit="10" d="M375.5,316c0,16.753,0,22.28,0,24.103"/>
		<g>
			<path d="M371.9,334.973c0.174-0.111,0.406-0.06,0.518,0.115l3.082,4.839l3.082-4.839c0.111-0.175,0.344-0.226,0.518-0.115
				s0.225,0.345,0.115,0.518l-3.398,5.336c-0.069,0.108-0.188,0.174-0.316,0.174s-0.248-0.066-0.316-0.174l-3.398-5.336
				c-0.04-0.062-0.059-0.132-0.059-0.201C371.727,335.166,371.788,335.044,371.9,334.973z"/>
		</g>
	</g>
	<g>
		<path fill="none" stroke="#000000" stroke-width="0.75" stroke-miterlimit="10" d="M544.904,339.791v-20.844
			c0-8.769-7.108-15.877-15.877-15.877h-3.602"/>
		<g>
			<path d="M548.504,334.665c-0.174-0.111-0.406-0.06-0.518,0.115l-3.082,4.839l-3.082-4.839c-0.111-0.175-0.344-0.226-0.518-0.115
				s-0.225,0.345-0.115,0.518l3.398,5.336c0.069,0.108,0.188,0.174,0.316,0.174s0.248-0.066,0.316-0.174l3.398-5.336
				c0.04-0.062,0.059-0.132,0.059-0.201C548.677,334.858,548.616,334.737,548.504,334.665z"/>
		</g>
	</g>
	<rect x="243" y="411" fill="#FFFFFF" width="108" height="55"/>
	<g>
		<path fill="none" stroke="#000000" stroke-width="0.75" stroke-miterlimit="10" d="M117,520.944V500.1
			c0-8.769,9.618-15.877,21.482-15.877h43.867"/>
		<g>
			<path d="M120.6,515.819c-0.174-0.111-0.406-0.06-0.518,0.115L117,520.773l-3.082-4.839c-0.111-0.175-0.344-0.226-0.518-0.115
				s-0.225,0.345-0.115,0.518l3.398,5.336c0.069,0.108,0.188,0.174,0.316,0.174s0.248-0.066,0.316-0.174l3.398-5.336
				c0.04-0.062,0.059-0.132,0.059-0.201C120.773,516.012,120.712,515.891,120.6,515.819z"/>
		</g>
	</g>
	<g>
		<path fill="none" stroke="#000000" stroke-width="0.75" stroke-miterlimit="10" d="M357.5,504c0,28.946,0,38.453,0,41.102"/>
		<g>
			<path d="M353.9,539.973c0.174-0.111,0.406-0.06,0.518,0.115l3.082,4.839l3.082-4.839c0.111-0.175,0.344-0.226,0.518-0.115
				s0.225,0.345,0.115,0.518l-3.398,5.336c-0.069,0.108-0.188,0.174-0.316,0.174s-0.248-0.066-0.316-0.174l-3.398-5.336
				c-0.04-0.062-0.059-0.132-0.059-0.201C353.727,540.166,353.788,540.044,353.9,539.973z"/>
		</g>
	</g>
	<g>
		<path fill="none" stroke="#000000" stroke-width="0.75" stroke-miterlimit="10" d="M296.522,434.81c0,20.728,0,28.033,0,30.293"/>
		<g>
			<path d="M292.922,459.973c0.174-0.111,0.406-0.06,0.518,0.115l3.082,4.839l3.082-4.839c0.111-0.175,0.343-0.226,0.518-0.115
				s0.225,0.345,0.115,0.518l-3.398,5.336c-0.069,0.108-0.188,0.174-0.316,0.174s-0.248-0.066-0.316-0.174l-3.398-5.336
				c-0.04-0.062-0.059-0.132-0.059-0.201C292.749,460.166,292.81,460.044,292.922,459.973z"/>
		</g>
	</g>
	<g>
		<path fill="none" stroke="#000000" stroke-width="0.75" stroke-miterlimit="10" d="M499.502,656.098l0.143-51.844
			c0.059-8.768-7.002-15.924-15.771-15.982l-5.446,0.061"/>
		<g>
			<path d="M503.116,650.982c-0.174-0.112-0.406-0.061-0.518,0.114l-3.095,4.831l-3.069-4.848c-0.111-0.175-0.343-0.227-0.517-0.116
				c-0.175,0.111-0.226,0.344-0.116,0.518l3.384,5.345c0.068,0.108,0.188,0.174,0.316,0.174s0.248-0.065,0.317-0.173l3.413-5.327
				c0.04-0.062,0.059-0.132,0.059-0.201C503.289,651.176,503.228,651.055,503.116,650.982z"/>
		</g>
	</g>
	<g>
		<path fill="none" stroke="#000000" stroke-width="0.75" stroke-miterlimit="10" d="M499.5,705c0,24.366,0,32.663,0,35.103"/>
		<g>
			<path d="M495.9,734.973c0.174-0.111,0.406-0.06,0.518,0.115l3.082,4.839l3.082-4.839c0.111-0.175,0.344-0.226,0.518-0.115
				s0.225,0.345,0.115,0.518l-3.398,5.336c-0.069,0.108-0.188,0.174-0.316,0.174s-0.248-0.066-0.316-0.174l-3.398-5.336
				c-0.04-0.062-0.059-0.132-0.059-0.201C495.727,735.166,495.788,735.044,495.9,734.973z"/>
		</g>
	</g>
	<g>
		<path fill="none" stroke="#000000" stroke-width="0.75" stroke-miterlimit="10" d="M499.5,789c0,19.084,0,25.931,0,28.103"/>
		<g>
			<path d="M495.9,811.973c0.174-0.111,0.406-0.06,0.518,0.115l3.082,4.839l3.082-4.839c0.111-0.175,0.344-0.226,0.518-0.115
				s0.225,0.345,0.115,0.518l-3.398,5.336c-0.069,0.108-0.188,0.174-0.316,0.174s-0.248-0.066-0.316-0.174l-3.398-5.336
				c-0.04-0.062-0.059-0.132-0.059-0.201C495.727,812.166,495.788,812.044,495.9,811.973z"/>
		</g>
	</g>
	<path fill="#DA0020" d="M561.979,908H436.021c-3.325,0-6.021-2.695-6.021-6.021v-24.959c0-3.325,2.695-6.021,6.021-6.021h125.959
		c3.325,0,6.021,2.695,6.021,6.021v24.959C568,905.305,565.305,908,561.979,908z"/>
	<path fill="none" stroke="#000000" stroke-width="0.75" stroke-miterlimit="10" d="M502.584,587.479"/>
	<path fill="none" stroke="#000000" stroke-width="0.75" stroke-miterlimit="10" d="M467.5,667.5"/>
	<path fill="none" stroke="#000000" stroke-width="0.75" stroke-miterlimit="10" d="M471.512,667.29"/>
	<path fill="none" stroke="#000000" stroke-width="0.75" stroke-miterlimit="10" d="M54.142,394v13.832
		c0,5.577,4.717,10.099,10.535,10.099H243"/>
	<path fill="none" stroke="#000000" stroke-width="0.75" stroke-miterlimit="10" d="M203.351,394v13.872
		c0,5.594,4.267,10.128,9.531,10.128h30.293"/>
	<path fill="none" stroke="#000000" stroke-width="0.75" stroke-miterlimit="10" d="M545.532,393.756v13.832
		c0,5.577-4.717,10.099-10.535,10.099H356.675"/>
	<path fill="none" stroke="#000000" stroke-width="0.75" stroke-miterlimit="10" d="M377.324,393.756v13.872
		c0,5.594-4.267,10.128-9.531,10.128h-11.349"/>
	<g>
		<path fill="none" stroke="#000000" stroke-width="0.75" stroke-miterlimit="10" d="M280.5,611c0,20.54,0,54.02,0,64.102"/>
		<g>
			<path d="M276.9,669.973c0.174-0.111,0.406-0.06,0.518,0.115l3.082,4.839l3.082-4.839c0.111-0.175,0.344-0.226,0.518-0.115
				s0.225,0.345,0.115,0.518l-3.398,5.336c-0.069,0.108-0.188,0.174-0.316,0.174s-0.248-0.066-0.316-0.174l-3.398-5.336
				c-0.04-0.062-0.059-0.132-0.059-0.201C276.727,670.166,276.788,670.044,276.9,669.973z"/>
		</g>
	</g>
	<rect x="244" y="402" fill="#FFFFFF" width="111" height="24"/>
	<rect x="224" y="631" fill="#FFFFFF" width="111" height="16"/>
	<rect x="443" y="614" fill="#FFFFFF" width="111" height="16"/>
</g>
<style>
#g-ccrb-review-process-desktop_tablet-img rect, #g-ccrb-review-process-desktop_tablet-img circle, #g-ccrb-review-process-desktop_tablet-img path, #g-ccrb-review-process-desktop_tablet-img line, #g-ccrb-review-process-desktop_tablet-img polyline { vector-effect: non-scaling-stroke; }
</style>
</svg>

