<?xml version="1.0" encoding="utf-8"?>
<!-- Generator: Adobe Illustrator 23.1.1, SVG Export Plug-In . SVG Version: 6.00 Build 0)  -->
<svg version="1.2" baseProfile="tiny" id="g-scoloveno-mobile-img" xmlns="http://www.w3.org/2000/svg" xmlns:xlink="http://www.w3.org/1999/xlink"
	 x="0px" y="0px" viewBox="0 0 300 550" xml:space="preserve">
<g>
	<g>
		
			<line fill="none" stroke="#000000" stroke-width="0.5" stroke-miterlimit="10" x1="171.109" y1="508.334" x2="171.11" y2="505.834"/>
		
			<line fill="none" stroke="#000000" stroke-width="0.5" stroke-miterlimit="10" stroke-dasharray="5.0826,5.0826" x1="171.112" y1="500.751" x2="171.217" y2="289.823"/>
		
			<line fill="none" stroke="#000000" stroke-width="0.5" stroke-miterlimit="10" x1="171.219" y1="287.282" x2="171.22" y2="284.782"/>
	</g>
	<g>
		
			<line fill="none" stroke="#000000" stroke-width="0.5" stroke-miterlimit="10" x1="97.303" y1="508.334" x2="97.303" y2="505.834"/>
		
			<line fill="none" stroke="#000000" stroke-width="0.5" stroke-miterlimit="10" stroke-dasharray="5.0349,5.0349" x1="97.303" y1="500.799" x2="97.303" y2="362.34"/>
		
			<line fill="none" stroke="#000000" stroke-width="0.5" stroke-miterlimit="10" x1="97.303" y1="359.822" x2="97.303" y2="357.322"/>
	</g>
	<g>
		
			<line fill="none" stroke="#000000" stroke-width="0.5" stroke-linecap="square" stroke-miterlimit="10" x1="41.69" y1="468.197" x2="39.135" y2="468.197"/>
		
			<line fill="none" stroke="#000000" stroke-width="0.5" stroke-linecap="square" stroke-miterlimit="10" x1="41.69" y1="468.197" x2="39.135" y2="468.197"/>
		
			<line fill="none" stroke="#000000" stroke-width="0.5" stroke-linecap="square" stroke-miterlimit="10" x1="41.69" y1="420.71" x2="39.135" y2="420.71"/>
		
			<line fill="none" stroke="#000000" stroke-width="0.5" stroke-linecap="square" stroke-miterlimit="10" x1="41.69" y1="420.71" x2="39.135" y2="420.71"/>
		
			<line fill="none" stroke="#000000" stroke-width="0.5" stroke-linecap="square" stroke-miterlimit="10" x1="41.69" y1="373.222" x2="39.135" y2="373.222"/>
		
			<line fill="none" stroke="#000000" stroke-width="0.5" stroke-linecap="square" stroke-miterlimit="10" x1="41.69" y1="373.222" x2="39.135" y2="373.222"/>
		
			<line fill="none" stroke="#000000" stroke-width="0.5" stroke-linecap="square" stroke-miterlimit="10" x1="41.69" y1="325.735" x2="39.135" y2="325.735"/>
		
			<line fill="none" stroke="#000000" stroke-width="0.5" stroke-linecap="square" stroke-miterlimit="10" x1="41.69" y1="325.735" x2="39.135" y2="325.735"/>
		
			<line fill="none" stroke="#000000" stroke-width="0.5" stroke-linecap="square" stroke-miterlimit="10" x1="41.69" y1="278.247" x2="39.135" y2="278.247"/>
		
			<line fill="none" stroke="#000000" stroke-width="0.5" stroke-linecap="square" stroke-miterlimit="10" x1="41.69" y1="278.247" x2="39.135" y2="278.247"/>
		
			<line fill="none" stroke="#000000" stroke-width="0.5" stroke-linecap="square" stroke-miterlimit="10" x1="41.69" y1="230.76" x2="39.135" y2="230.76"/>
		
			<line fill="none" stroke="#000000" stroke-width="0.5" stroke-linecap="square" stroke-miterlimit="10" x1="41.69" y1="230.76" x2="39.135" y2="230.76"/>
		
			<line fill="none" stroke="#000000" stroke-width="0.5" stroke-linecap="square" stroke-miterlimit="10" x1="41.69" y1="183.273" x2="39.135" y2="183.273"/>
		
			<line fill="none" stroke="#000000" stroke-width="0.5" stroke-linecap="square" stroke-miterlimit="10" x1="41.69" y1="183.273" x2="39.135" y2="183.273"/>
		
			<line fill="none" stroke="#000000" stroke-width="0.5" stroke-linecap="square" stroke-miterlimit="10" x1="41.69" y1="508.562" x2="41.69" y2="135.904"/>
		
			<line fill="none" stroke="#000000" stroke-width="0.5" stroke-linecap="square" stroke-miterlimit="10" x1="41.69" y1="508.562" x2="275" y2="508.562"/>
	</g>
	<line fill="none" stroke="#000000" stroke-width="0.5" stroke-miterlimit="10" x1="275" y1="508.81" x2="275" y2="515.009"/>
	
		<line fill="none" stroke="#000000" stroke-width="0.5" stroke-miterlimit="10" x1="246.915" y1="508.334" x2="246.915" y2="514.532"/>
	
		<line fill="none" stroke="#000000" stroke-width="0.5" stroke-miterlimit="10" x1="215.627" y1="508.581" x2="215.627" y2="514.779"/>
	
		<line fill="none" stroke="#000000" stroke-width="0.5" stroke-miterlimit="10" x1="186.132" y1="508.462" x2="186.132" y2="514.66"/>
	
		<line fill="none" stroke="#000000" stroke-width="0.5" stroke-miterlimit="10" x1="156.609" y1="508.742" x2="156.609" y2="514.94"/>
	
		<line fill="none" stroke="#000000" stroke-width="0.5" stroke-miterlimit="10" x1="126.871" y1="508.982" x2="126.871" y2="515.18"/>
	
		<line fill="none" stroke="#000000" stroke-width="0.5" stroke-miterlimit="10" x1="97.302" y1="508.845" x2="97.302" y2="515.043"/>
	<line fill="none" stroke="#000000" stroke-width="0.5" stroke-miterlimit="10" x1="67.971" y1="508.69" x2="67.971" y2="514.888"/>
	
		<line fill="none" stroke="#000000" stroke-width="0.5" stroke-linecap="square" stroke-miterlimit="10" x1="41.69" y1="135.891" x2="39.135" y2="135.891"/>
	<g>
		
			<line fill="none" stroke="#000000" stroke-width="0.5" stroke-miterlimit="10" x1="53.297" y1="508.722" x2="53.297" y2="506.222"/>
		
			<line fill="none" stroke="#000000" stroke-width="0.5" stroke-miterlimit="10" stroke-dasharray="4.9489,4.9489" x1="53.297" y1="501.273" x2="53.297" y2="246.406"/>
		
			<line fill="none" stroke="#000000" stroke-width="0.5" stroke-miterlimit="10" x1="53.297" y1="243.931" x2="53.297" y2="241.431"/>
	</g>
	<rect x="163.138" y="372.001" fill="#FFFFFF" width="14.968" height="94.381"/>
	<polyline fill="none" stroke="#DAA520" stroke-width="2" stroke-miterlimit="10" points="53.297,491.623 67.627,491.623 
		67.627,475.809 82.125,475.809 82.125,468.867 97.248,468.867 97.248,386.766 111.914,386.766 111.914,433.175 126.698,433.175 
		126.698,379.42 141.482,379.42 141.482,197.849 156.549,197.849 156.549,297.489 171.22,297.489 171.22,284.782 185.981,284.782 
		185.981,204.324 200.742,204.324 200.742,260.511 215.617,260.511 215.617,244.821 230.238,244.821 230.238,202.633 
		245.882,202.633 245.882,178.334 261.258,178.334 261.258,153.367 275.222,153.367 275.222,162.427 288.92,162.427 	"/>
	<rect x="47.816" y="326.811" fill="#FFFFFF" width="32.782" height="8.457"/>
	
		<rect style="opacity:0.5;" x="131.711" y="327.082" transform="matrix(6.123234e-17 -1 1 6.123234e-17 -189.7838 472.8367)" fill="#FFFFFF" width="19.631" height="8.457"/>
	
		<rect style="opacity:0.5;" x="121.69" y="410.305" transform="matrix(6.123234e-17 -1 1 6.123234e-17 -287.1465 541.9205)" fill="#FFFFFF" width="11.393" height="8.457"/>
</g>
<style>
#g-scoloveno-mobile-img rect, #g-scoloveno-mobile-img circle, #g-scoloveno-mobile-img path, #g-scoloveno-mobile-img line, #g-scoloveno-mobile-img polyline { vector-effect: non-scaling-stroke; }
</style>
</svg>

