<?xml version="1.0" encoding="utf-8"?>
<!-- Generator: Adobe Illustrator 23.1.1, SVG Export Plug-In . SVG Version: 6.00 Build 0)  -->
<svg version="1.2" baseProfile="tiny" id="g-scoloveno-desktop-img" xmlns="http://www.w3.org/2000/svg" xmlns:xlink="http://www.w3.org/1999/xlink"
	 x="0px" y="0px" viewBox="0 0 650 550" xml:space="preserve">
<g>
	<g>
		
			<line fill="none" stroke="#000000" stroke-width="0.5" stroke-miterlimit="10" x1="356.691" y1="499.334" x2="356.694" y2="496.834"/>
		
			<line fill="none" stroke="#000000" stroke-width="0.5" stroke-miterlimit="10" stroke-dasharray="5.0826,5.0826" x1="356.7" y1="491.751" x2="356.93" y2="280.823"/>
		
			<line fill="none" stroke="#000000" stroke-width="0.5" stroke-miterlimit="10" x1="356.933" y1="278.282" x2="356.935" y2="275.782"/>
	</g>
	<g>
		
			<line fill="none" stroke="#000000" stroke-width="0.5" stroke-miterlimit="10" x1="195.045" y1="499.334" x2="195.045" y2="496.834"/>
		
			<line fill="none" stroke="#000000" stroke-width="0.5" stroke-miterlimit="10" stroke-dasharray="5.0349,5.0349" x1="195.045" y1="491.799" x2="195.045" y2="353.34"/>
		
			<line fill="none" stroke="#000000" stroke-width="0.5" stroke-miterlimit="10" x1="195.045" y1="350.822" x2="195.045" y2="348.322"/>
	</g>
	<g>
		
			<line fill="none" stroke="#000000" stroke-width="0.5" stroke-linecap="square" stroke-miterlimit="10" x1="73.245" y1="459.197" x2="67.648" y2="459.197"/>
		
			<line fill="none" stroke="#000000" stroke-width="0.5" stroke-linecap="square" stroke-miterlimit="10" x1="73.245" y1="459.197" x2="67.648" y2="459.197"/>
		
			<line fill="none" stroke="#000000" stroke-width="0.5" stroke-linecap="square" stroke-miterlimit="10" x1="73.245" y1="411.71" x2="67.648" y2="411.71"/>
		
			<line fill="none" stroke="#000000" stroke-width="0.5" stroke-linecap="square" stroke-miterlimit="10" x1="73.245" y1="411.71" x2="67.648" y2="411.71"/>
		
			<line fill="none" stroke="#000000" stroke-width="0.5" stroke-linecap="square" stroke-miterlimit="10" x1="73.245" y1="364.222" x2="67.648" y2="364.222"/>
		
			<line fill="none" stroke="#000000" stroke-width="0.5" stroke-linecap="square" stroke-miterlimit="10" x1="73.245" y1="364.222" x2="67.648" y2="364.222"/>
		
			<line fill="none" stroke="#000000" stroke-width="0.5" stroke-linecap="square" stroke-miterlimit="10" x1="73.245" y1="316.735" x2="67.648" y2="316.735"/>
		
			<line fill="none" stroke="#000000" stroke-width="0.5" stroke-linecap="square" stroke-miterlimit="10" x1="73.245" y1="316.735" x2="67.648" y2="316.735"/>
		
			<line fill="none" stroke="#000000" stroke-width="0.5" stroke-linecap="square" stroke-miterlimit="10" x1="73.245" y1="269.247" x2="67.648" y2="269.247"/>
		
			<line fill="none" stroke="#000000" stroke-width="0.5" stroke-linecap="square" stroke-miterlimit="10" x1="73.245" y1="269.247" x2="67.648" y2="269.247"/>
		
			<line fill="none" stroke="#000000" stroke-width="0.5" stroke-linecap="square" stroke-miterlimit="10" x1="73.245" y1="221.76" x2="67.648" y2="221.76"/>
		
			<line fill="none" stroke="#000000" stroke-width="0.5" stroke-linecap="square" stroke-miterlimit="10" x1="73.245" y1="221.76" x2="67.648" y2="221.76"/>
		
			<line fill="none" stroke="#000000" stroke-width="0.5" stroke-linecap="square" stroke-miterlimit="10" x1="73.245" y1="174.273" x2="67.648" y2="174.273"/>
		
			<line fill="none" stroke="#000000" stroke-width="0.5" stroke-linecap="square" stroke-miterlimit="10" x1="73.245" y1="174.273" x2="67.648" y2="174.273"/>
		
			<line fill="none" stroke="#000000" stroke-width="0.5" stroke-linecap="square" stroke-miterlimit="10" x1="73.245" y1="499.562" x2="73.245" y2="126.904"/>
		
			<line fill="none" stroke="#000000" stroke-width="0.5" stroke-linecap="square" stroke-miterlimit="10" x1="73.245" y1="499.562" x2="584.229" y2="499.562"/>
	</g>
	
		<line fill="none" stroke="#000000" stroke-width="0.5" stroke-miterlimit="10" x1="584.229" y1="499.81" x2="584.229" y2="506.009"/>
	
		<line fill="none" stroke="#000000" stroke-width="0.5" stroke-miterlimit="10" x1="522.72" y1="499.334" x2="522.72" y2="505.532"/>
	
		<line fill="none" stroke="#000000" stroke-width="0.5" stroke-miterlimit="10" x1="454.194" y1="499.581" x2="454.194" y2="505.779"/>
	
		<line fill="none" stroke="#000000" stroke-width="0.5" stroke-miterlimit="10" x1="389.594" y1="499.462" x2="389.594" y2="505.66"/>
	
		<line fill="none" stroke="#000000" stroke-width="0.5" stroke-miterlimit="10" x1="324.934" y1="499.742" x2="324.934" y2="505.94"/>
	
		<line fill="none" stroke="#000000" stroke-width="0.5" stroke-miterlimit="10" x1="259.804" y1="499.982" x2="259.804" y2="506.18"/>
	
		<line fill="none" stroke="#000000" stroke-width="0.5" stroke-miterlimit="10" x1="195.045" y1="499.845" x2="195.045" y2="506.043"/>
	
		<line fill="none" stroke="#000000" stroke-width="0.5" stroke-miterlimit="10" x1="130.804" y1="499.69" x2="130.804" y2="505.888"/>
	
		<line fill="none" stroke="#000000" stroke-width="0.5" stroke-linecap="square" stroke-miterlimit="10" x1="73.245" y1="126.891" x2="67.648" y2="126.891"/>
	<g>
		
			<line fill="none" stroke="#000000" stroke-width="0.5" stroke-miterlimit="10" x1="98.665" y1="499.722" x2="98.665" y2="497.222"/>
		
			<line fill="none" stroke="#000000" stroke-width="0.5" stroke-miterlimit="10" stroke-dasharray="4.9489,4.9489" x1="98.665" y1="492.273" x2="98.665" y2="237.406"/>
		
			<line fill="none" stroke="#000000" stroke-width="0.5" stroke-miterlimit="10" x1="98.665" y1="234.931" x2="98.665" y2="232.431"/>
	</g>
	<rect x="341.424" y="353.432" fill="#FFFFFF" width="32.782" height="104.628"/>
	<polyline fill="none" stroke="#DAA520" stroke-width="2" stroke-miterlimit="10" points="98.665,482.623 130.05,482.623 
		130.05,466.809 161.804,466.809 161.804,459.867 194.925,459.867 194.925,377.766 227.047,377.766 227.047,424.175 
		259.424,424.175 259.424,370.42 291.804,370.42 291.804,188.849 324.804,188.849 324.804,288.489 356.934,288.489 356.934,275.782 
		389.264,275.782 389.264,195.324 421.594,195.324 421.594,251.511 454.172,251.511 454.172,235.821 486.194,235.821 
		486.194,193.633 520.457,193.633 520.457,169.334 554.133,169.334 554.133,144.367 584.716,144.367 584.716,153.427 
		614.716,153.427 	"/>
</g>
<style>
#g-scoloveno-desktop-img rect, #g-scoloveno-desktop-img circle, #g-scoloveno-desktop-img path, #g-scoloveno-desktop-img line, #g-scoloveno-desktop-img polyline { vector-effect: non-scaling-stroke; }
</style>
</svg>

