<?xml version="1.0" encoding="utf-8"?>
<!-- Generator: Adobe Illustrator 23.1.1, SVG Export Plug-In . SVG Version: 6.00 Build 0)  -->
<svg version="1.2" baseProfile="tiny" id="g-tavares-desktop-img" xmlns="http://www.w3.org/2000/svg" xmlns:xlink="http://www.w3.org/1999/xlink"
	 x="0px" y="0px" viewBox="0 0 650 500" xml:space="preserve">
<g>
	<g>
		
			<line fill="none" stroke="#000000" stroke-width="0.5" stroke-miterlimit="10" x1="321.099" y1="456.655" x2="321.093" y2="454.155"/>
		
			<line fill="none" stroke="#000000" stroke-width="0.5" stroke-miterlimit="10" stroke-dasharray="5.0868,5.0868" x1="321.08" y1="449.068" x2="320.683" y2="288.834"/>
		
			<line fill="none" stroke="#000000" stroke-width="0.5" stroke-miterlimit="10" x1="320.677" y1="286.291" x2="320.671" y2="283.791"/>
	</g>
	<g>
		
			<line fill="none" stroke="#000000" stroke-width="0.5" stroke-linecap="square" stroke-miterlimit="10" x1="66.217" y1="408.584" x2="60.617" y2="408.584"/>
		
			<line fill="none" stroke="#000000" stroke-width="0.5" stroke-linecap="square" stroke-miterlimit="10" x1="66.217" y1="339.243" x2="60.617" y2="339.243"/>
		
			<line fill="none" stroke="#000000" stroke-width="0.5" stroke-linecap="square" stroke-miterlimit="10" x1="66.217" y1="269.902" x2="60.617" y2="269.902"/>
		
			<line fill="none" stroke="#000000" stroke-width="0.5" stroke-linecap="square" stroke-miterlimit="10" x1="66.217" y1="200.561" x2="60.617" y2="200.561"/>
		
			<line fill="none" stroke="#000000" stroke-width="0.5" stroke-linecap="square" stroke-miterlimit="10" x1="66.217" y1="131.219" x2="60.617" y2="131.219"/>
		
			<line fill="none" stroke="#000000" stroke-width="0.5" stroke-linecap="square" stroke-miterlimit="10" x1="66.217" y1="456.725" x2="66.217" y2="125.831"/>
		
			<line fill="none" stroke="#000000" stroke-width="0.5" stroke-linecap="square" stroke-miterlimit="10" x1="66.217" y1="456.725" x2="614.592" y2="456.725"/>
	</g>
	<line stroke="#000000" stroke-width="0.5" stroke-miterlimit="10" x1="587.365" y1="457.229" x2="587.365" y2="462.721"/>
	
		<line fill="none" stroke="#000000" stroke-width="0.5" stroke-miterlimit="10" x1="587.365" y1="456.727" x2="587.365" y2="462.218"/>
	
		<line fill="none" stroke="#000000" stroke-width="0.5" stroke-miterlimit="10" x1="499.442" y1="456.624" x2="499.442" y2="462.115"/>
	
		<line fill="none" stroke="#000000" stroke-width="0.5" stroke-miterlimit="10" x1="411.37" y1="456.672" x2="411.37" y2="462.164"/>
	
		<line fill="none" stroke="#000000" stroke-width="0.5" stroke-miterlimit="10" x1="321.097" y1="457.074" x2="321.097" y2="462.565"/>
	
		<line fill="none" stroke="#000000" stroke-width="0.5" stroke-miterlimit="10" x1="233.355" y1="456.52" x2="233.355" y2="462.011"/>
	
		<line fill="none" stroke="#000000" stroke-width="0.5" stroke-linecap="square" stroke-miterlimit="10" x1="145.052" y1="457.247" x2="145.052" y2="462.573"/>
	<g>
		
			<line fill="none" stroke="#000000" stroke-width="0.5" stroke-miterlimit="10" x1="99.812" y1="456.655" x2="99.812" y2="454.155"/>
		
			<line fill="none" stroke="#000000" stroke-width="0.5" stroke-miterlimit="10" stroke-dasharray="4.9238,4.9238" x1="99.812" y1="449.231" x2="99.812" y2="264.589"/>
		
			<line fill="none" stroke="#000000" stroke-width="0.5" stroke-miterlimit="10" x1="99.812" y1="262.127" x2="99.812" y2="259.627"/>
	</g>
	<rect style="opacity:0.5;" x="294.142" y="351.44" fill="#FFFFFF" width="11.102" height="54.605"/>
	<rect style="opacity:0.5;" x="338.89" y="351.44" fill="#FFFFFF" width="11.102" height="54.605"/>
	
		<polyline fill="none" stroke="#DAA520" stroke-width="2" stroke-linecap="square" stroke-linejoin="round" stroke-miterlimit="10" points="
		98.488,441.684 143.359,441.684 143.359,365.348 187.314,365.348 187.314,293.926 231.662,293.926 231.662,310.82 276.25,310.82 
		276.25,295.149 320.67,295.149 320.67,283.791 364.499,283.791 364.499,220.281 409.677,220.281 409.677,213.462 453.177,213.462 
		497.749,213.462 497.749,187.722 541.815,187.722 541.633,140.872 585.133,140.872 585.319,183.024 628.819,183.024 	"/>
	<rect x="315.356" y="334.25" fill="#FFFFFF" width="15.037" height="70.431"/>
</g>
<style>
#g-tavares-desktop-img rect, #g-tavares-desktop-img circle, #g-tavares-desktop-img path, #g-tavares-desktop-img line, #g-tavares-desktop-img polyline { vector-effect: non-scaling-stroke; }
</style>
</svg>

